ply
format ascii 1.0
comment exported from virtual worlds 
comment Voxel surface data
element vertex 1119
property float x
property float y
property float z
property float nx
property float ny
property float nz
end_header
2.75 6.20652 9.38971 -0.57735 -0.666667 -0.471405
3.25 6.20652 9.38971 0 -0.617802 -0.786334
3.75 6.20652 9.38971 0 -0.617802 -0.786334
4.25 6.20652 9.38971 0 -0.617802 -0.786334
4.75 6.20652 9.38971 0 -0.617802 -0.786334
5.25 6.20652 9.38971 0 -0.617802 -0.786334
5.75 6.20652 9.38971 0.393496 -0.567962 -0.722897
14.25 6.20652 9.38971 -0.393496 -0.567962 -0.722897
14.75 6.20652 9.38971 0 -0.617802 -0.786334
15.25 6.20652 9.38971 0 -0.617802 -0.786334
15.75 6.20652 9.38971 0 -0.617802 -0.786334
16.25 6.20652 9.38971 0 -0.617802 -0.786334
16.75 6.20652 9.38971 0 -0.617802 -0.786334
17.25 6.20652 9.38971 0.57735 -0.666667 -0.471405
2 6.63953 9.38971 -0.393496 -0.567962 -0.722897
2.5 6.63953 9.38971 -0.251312 -0.29019 -0.92338
3 6.63953 9.38971 0 0.15523 -0.987878
3.5 6.63953 9.38971 0 0.15523 -0.987878
4 6.63953 9.38971 0 0.15523 -0.987878
4.5 6.63953 9.38971 0 0.15523 -0.987878
5 6.63953 9.38971 0 0.15523 -0.987878
5.5 6.63953 9.38971 0 0.15523 -0.987878
6 6.63953 9.38971 0.251312 -0.29019 -0.92338
6.5 6.63953 9.38971 0 -0.617802 -0.786334
7 6.63953 9.38971 0.393496 -0.567962 -0.722897
13 6.63953 9.38971 -0.393496 -0.567962 -0.722897
13.5 6.63953 9.38971 0 -0.617802 -0.786334
14 6.63953 9.38971 -0.251312 -0.29019 -0.92338
14.5 6.63953 9.38971 0 0.15523 -0.987878
15 6.63953 9.38971 0 0.15523 -0.987878
15.5 6.63953 9.38971 0 0.15523 -0.987878
16 6.63953 9.38971 0 0.15523 -0.987878
16.5 6.63953 9.38971 0 0.15523 -0.987878
17 6.63953 9.38971 0 0.15523 -0.987878
17.5 6.63953 9.38971 0.251312 -0.29019 -0.92338
18 6.63953 9.38971 0.393496 -0.567962 -0.722897
1.25 7.07254 9.38971 -0.57735 -0.666667 -0.471405
1.75 7.07254 9.38971 0 0.15523 -0.987878
2.25 7.07254 9.38971 0 0.739923 -0.672692
2.75 7.07254 9.38971 0 0.883452 -0.468521
3.25 7.07254 9.38971 0 0.883452 -0.468521
3.75 7.07254 9.38971 0 0.883452 -0.468521
4.25 7.07254 9.38971 0 0.883452 -0.468521
4.75 7.07254 9.38971 0 0.739923 -0.672692
5.25 7.07254 9.38971 -0.224544 0.518563 -0.825029
5.75 7.07254 9.38971 0 0.15523 -0.987878
6.25 7.07254 9.38971 0 0.15523 -0.987878
6.75 7.07254 9.38971 0 0.15523 -0.987878
7.25 7.07254 9.38971 0.251312 -0.29019 -0.92338
7.75 7.07254 9.38971 0 -0.617802 -0.786334
8.25 7.07254 9.38971 0.393496 -0.567962 -0.722897
11.75 7.07254 9.38971 -0.393496 -0.567962 -0.722897
12.25 7.07254 9.38971 0 -0.617802 -0.786334
12.75 7.07254 9.38971 -0.251312 -0.29019 -0.92338
13.25 7.07254 9.38971 0 0.15523 -0.987878
13.75 7.07254 9.38971 0 0.15523 -0.987878
14.25 7.07254 9.38971 0 0.15523 -0.987878
14.75 7.07254 9.38971 0.224544 0.518563 -0.825029
15.25 7.07254 9.38971 0 0.739923 -0.672692
15.75 7.07254 9.38971 0 0.883452 -0.468521
16.25 7.07254 9.38971 0 0.883452 -0.468521
16.75 7.07254 9.38971 0 0.883452 -0.468521
17.25 7.07254 9.38971 0 0.883452 -0.468521
17.75 7.07254 9.38971 0 0.739923 -0.672692
18.25 7.07254 9.38971 0 0.15523 -0.987878
18.75 7.07254 9.38971 0.57735 -0.666667 -0.471405
1 7.50555 9.38971 -0.61451 -0.236525 -0.752618
1.5 7.50555 9.38971 0.568642 0.437741 -0.696441
5.5 7.50555 9.38971 -0.343841 0.694808 -0.631676
6 7.50555 9.38971 -0.224544 0.518563 -0.825029
6.5 7.50555 9.38971 0 0.15523 -0.987878
7 7.50555 9.38971 0 0.15523 -0.987878
7.5 7.50555 9.38971 0 0.15523 -0.987878
8 7.50555 9.38971 0 0.15523 -0.987878
8.5 7.50555 9.38971 0.251312 -0.29019 -0.92338
9 7.50555 9.38971 0 -0.617802 -0.786334
9.5 7.50555 9.38971 0 -0.617802 -0.786334
10 7.50555 9.38971 0 -0.617802 -0.786334
10.5 7.50555 9.38971 0 -0.617802 -0.786334
11 7.50555 9.38971 0 -0.617802 -0.786334
11.5 7.50555 9.38971 -0.251312 -0.29019 -0.92338
12 7.50555 9.38971 0 0.15523 -0.987878
12.5 7.50555 9.38971 0 0.15523 -0.987878
13 7.50555 9.38971 0 0.15523 -0.987878
13.5 7.50555 9.38971 0 0.15523 -0.987878
14 7.50555 9.38971 0.224544 0.518563 -0.825029
14.5 7.50555 9.38971 0.343841 0.694808 -0.631676
18.5 7.50555 9.38971 -0.568642 0.437741 -0.696441
19 7.50555 9.38971 0.61451 -0.236525 -0.752618
0.25 7.93857 9.38971 -0.8 -0.34641 -0.489898
0.75 7.93857 9.38971 0 0.15523 -0.987878
1.25 7.93857 9.38971 0.357295 0.825137 -0.437595
6.25 7.93857 9.38971 -0.568642 0.437741 -0.696441
6.75 7.93857 9.38971 0 0.15523 -0.987878
7.25 7.93857 9.38971 0 0.15523 -0.987878
7.75 7.93857 9.38971 0 0.15523 -0.987878
8.25 7.93857 9.38971 0 0.15523 -0.987878
8.75 7.93857 9.38971 0 0.15523 -0.987878
9.25 7.93857 9.38971 0 0.15523 -0.987878
9.75 7.93857 9.38971 0 0.15523 -0.987878
10.25 7.93857 9.38971 0 0.15523 -0.987878
10.75 7.93857 9.38971 0 0.15523 -0.987878
11.25 7.93857 9.38971 0 0.15523 -0.987878
11.75 7.93857 9.38971 0 0.15523 -0.987878
12.25 7.93857 9.38971 0 0.15523 -0.987878
12.75 7.93857 9.38971 0 0.15523 -0.987878
13.25 7.93857 9.38971 0 0.15523 -0.987878
13.75 7.93857 9.38971 0.568642 0.437741 -0.696441
18.75 7.93857 9.38971 -0.357295 0.825137 -0.437595
19.25 7.93857 9.38971 0 0.15523 -0.987878
19.75 7.93857 9.38971 0.8 -0.34641 -0.489898
0.5 8.37158 9.38971 0.224544 0.518563 -0.825029
6.5 8.37158 9.38971 -0.568642 0.437741 -0.696441
7 8.37158 9.38971 0 0.15523 -0.987878
7.5 8.37158 9.38971 0 0.15523 -0.987878
8 8.37158 9.38971 0 0.15523 -0.987878
8.5 8.37158 9.38971 0 0.15523 -0.987878
9 8.37158 9.38971 0 0.15523 -0.987878
9.5 8.37158 9.38971 0 0.15523 -0.987878
10 8.37158 9.38971 0 0.15523 -0.987878
10.5 8.37158 9.38971 0 0.15523 -0.987878
11 8.37158 9.38971 0 0.15523 -0.987878
11.5 8.37158 9.38971 0 0.15523 -0.987878
12 8.37158 9.38971 0 0.15523 -0.987878
12.5 8.37158 9.38971 0 0.15523 -0.987878
13 8.37158 9.38971 0 0.15523 -0.987878
13.5 8.37158 9.38971 0.568642 0.437741 -0.696441
19.5 8.37158 9.38971 -0.224544 0.518563 -0.825029
0.25 8.80459 9.38971 -0.251312 -0.29019 -0.92338
6.75 8.80459 9.38971 -0.568642 0.437741 -0.696441
7.25 8.80459 9.38971 0 0.15523 -0.987878
7.75 8.80459 9.38971 0 0.15523 -0.987878
8.25 8.80459 9.38971 0 0.15523 -0.987878
8.75 8.80459 9.38971 0 0.15523 -0.987878
9.25 8.80459 9.38971 0 0.15523 -0.987878
9.75 8.80459 9.38971 0 0.15523 -0.987878
10.25 8.80459 9.38971 0 0.15523 -0.987878
10.75 8.80459 9.38971 0 0.15523 -0.987878
11.25 8.80459 9.38971 0 0.15523 -0.987878
11.75 8.80459 9.38971 0 0.15523 -0.987878
12.25 8.80459 9.38971 0 0.15523 -0.987878
12.75 8.80459 9.38971 0 0.15523 -0.987878
13.25 8.80459 9.38971 0.568642 0.437741 -0.696441
19.75 8.80459 9.38971 0.251312 -0.29019 -0.92338
0 9.2376 9.38971 -0.898027 0 -0.439941
0.5 9.2376 9.38971 0.898027 0 -0.439941
7 9.2376 9.38971 -0.568642 0.437741 -0.696441
7.5 9.2376 9.38971 0 0.15523 -0.987878
8 9.2376 9.38971 0 0.15523 -0.987878
8.5 9.2376 9.38971 0 0.15523 -0.987878
9 9.2376 9.38971 0 0.15523 -0.987878
9.5 9.2376 9.38971 0 0.15523 -0.987878
10 9.2376 9.38971 0 0.15523 -0.987878
10.5 9.2376 9.38971 0 0.15523 -0.987878
11 9.2376 9.38971 0 0.15523 -0.987878
11.5 9.2376 9.38971 0 0.15523 -0.987878
12 9.2376 9.38971 0 0.15523 -0.987878
12.5 9.2376 9.38971 0 0.15523 -0.987878
13 9.2376 9.38971 0.568642 0.437741 -0.696441
19.5 9.2376 9.38971 -0.898027 0 -0.439941
20 9.2376 9.38971 0.61451 -0.236525 -0.752618
0.25 9.67062 9.38971 0.224544 0.518563 -0.825029
7.25 9.67062 9.38971 -0.568642 0.437741 -0.696441
7.75 9.67062 9.38971 0 0.15523 -0.987878
8.25 9.67062 9.38971 0 0.15523 -0.987878
8.75 9.67062 9.38971 0 0.15523 -0.987878
9.25 9.67062 9.38971 0 0.15523 -0.987878
9.75 9.67062 9.38971 0 0.15523 -0.987878
10.25 9.67062 9.38971 0 0.15523 -0.987878
10.75 9.67062 9.38971 0 0.15523 -0.987878
11.25 9.67062 9.38971 0 0.15523 -0.987878
11.75 9.67062 9.38971 0 0.15523 -0.987878
12.25 9.67062 9.38971 0 0.15523 -0.987878
12.75 9.67062 9.38971 0.568642 0.437741 -0.696441
19.75 9.67062 9.38971 -0.568642 0.437741 -0.696441
20.25 9.67062 9.38971 0.898027 0 -0.439941
0 10.1036 9.38971 -0.774597 0 -0.632456
7.5 10.1036 9.38971 -0.473602 0.136717 -0.870063
8 10.1036 9.38971 0 0.15523 -0.987878
8.5 10.1036 9.38971 0 0.15523 -0.987878
9 10.1036 9.38971 0 0.15523 -0.987878
9.5 10.1036 9.38971 0 0.15523 -0.987878
10 10.1036 9.38971 0 0.15523 -0.987878
10.5 10.1036 9.38971 0 0.15523 -0.987878
11 10.1036 9.38971 0 0.15523 -0.987878
11.5 10.1036 9.38971 0 0.15523 -0.987878
12 10.1036 9.38971 0 0.15523 -0.987878
12.5 10.1036 9.38971 0.473602 0.136717 -0.870063
20 10.1036 9.38971 0 0.15523 -0.987878
0.25 10.5366 9.38971 0.251312 -0.29019 -0.92338
7.25 10.5366 9.38971 -0.61451 -0.236525 -0.752618
7.75 10.5366 9.38971 0 0.15523 -0.987878
8.25 10.5366 9.38971 0 0.15523 -0.987878
8.75 10.5366 9.38971 0 0.15523 -0.987878
9.25 10.5366 9.38971 0 0.15523 -0.987878
9.75 10.5366 9.38971 0 0.15523 -0.987878
10.25 10.5366 9.38971 0 0.15523 -0.987878
10.75 10.5366 9.38971 0 0.15523 -0.987878
11.25 10.5366 9.38971 0 0.15523 -0.987878
11.75 10.5366 9.38971 0 0.15523 -0.987878
12.25 10.5366 9.38971 0 0.15523 -0.987878
12.75 10.5366 9.38971 0.61451 -0.236525 -0.752618
19.75 10.5366 9.38971 -0.61451 -0.236525 -0.752618
20.25 10.5366 9.38971 0.898027 0 -0.439941
0 10.9697 9.38971 -0.898027 0 -0.439941
0.5 10.9697 9.38971 0.8 -0.34641 -0.489898
7 10.9697 9.38971 -0.61451 -0.236525 -0.752618
7.5 10.9697 9.38971 0 0.15523 -0.987878
8 10.9697 9.38971 0 0.15523 -0.987878
8.5 10.9697 9.38971 0 0.15523 -0.987878
9 10.9697 9.38971 0 0.15523 -0.987878
9.5 10.9697 9.38971 0 0.15523 -0.987878
10 10.9697 9.38971 0 0.15523 -0.987878
10.5 10.9697 9.38971 0 0.15523 -0.987878
11 10.9697 9.38971 0 0.15523 -0.987878
11.5 10.9697 9.38971 0 0.15523 -0.987878
12 10.9697 9.38971 0 0.15523 -0.987878
12.5 10.9697 9.38971 0 0.15523 -0.987878
13 10.9697 9.38971 0.61451 -0.236525 -0.752618
19.5 10.9697 9.38971 -0.8 -0.34641 -0.489898
20 10.9697 9.38971 0.568642 0.437741 -0.696441
0.25 11.4027 9.38971 -0.568642 0.437741 -0.696441
0.75 11.4027 9.38971 0.8 -0.34641 -0.489898
6.75 11.4027 9.38971 -0.61451 -0.236525 -0.752618
7.25 11.4027 9.38971 0 0.15523 -0.987878
7.75 11.4027 9.38971 0 0.15523 -0.987878
8.25 11.4027 9.38971 0 0.15523 -0.987878
8.75 11.4027 9.38971 0 0.15523 -0.987878
9.25 11.4027 9.38971 0 0.15523 -0.987878
9.75 11.4027 9.38971 0 0.15523 -0.987878
10.25 11.4027 9.38971 0 0.15523 -0.987878
10.75 11.4027 9.38971 0 0.15523 -0.987878
11.25 11.4027 9.38971 0 0.15523 -0.987878
11.75 11.4027 9.38971 0 0.15523 -0.987878
12.25 11.4027 9.38971 0 0.15523 -0.987878
12.75 11.4027 9.38971 0 0.15523 -0.987878
13.25 11.4027 9.38971 0.61451 -0.236525 -0.752618
19.25 11.4027 9.38971 -0.8 -0.34641 -0.489898
19.75 11.4027 9.38971 0.568642 0.437741 -0.696441
0.5 11.8357 9.38971 -0.568642 0.437741 -0.696441
1 11.8357 9.38971 0.8 -0.34641 -0.489898
6.5 11.8357 9.38971 -0.61451 -0.236525 -0.752618
7 11.8357 9.38971 0 0.15523 -0.987878
7.5 11.8357 9.38971 0 0.15523 -0.987878
8 11.8357 9.38971 0 0.15523 -0.987878
8.5 11.8357 9.38971 0 0.15523 -0.987878
9 11.8357 9.38971 0 0.15523 -0.987878
9.5 11.8357 9.38971 0 0.15523 -0.987878
10 11.8357 9.38971 0 0.15523 -0.987878
10.5 11.8357 9.38971 0 0.15523 -0.987878
11 11.8357 9.38971 0 0.15523 -0.987878
11.5 11.8357 9.38971 0 0.15523 -0.987878
12 11.8357 9.38971 0 0.15523 -0.987878
12.5 11.8357 9.38971 0 0.15523 -0.987878
13 11.8357 9.38971 0 0.15523 -0.987878
13.5 11.8357 9.38971 0.61451 -0.236525 -0.752618
19 11.8357 9.38971 -0.8 -0.34641 -0.489898
19.5 11.8357 9.38971 0.568642 0.437741 -0.696441
0.75 12.2687 9.38971 -0.568642 0.437741 -0.696441
1.25 12.2687 9.38971 0.61451 -0.236525 -0.752618
5.75 12.2687 9.38971 -0.393496 -0.567962 -0.722897
6.25 12.2687 9.38971 -0.251312 -0.29019 -0.92338
6.75 12.2687 9.38971 0 0.15523 -0.987878
7.25 12.2687 9.38971 0 0.15523 -0.987878
7.75 12.2687 9.38971 0 0.15523 -0.987878
8.25 12.2687 9.38971 0 0.15523 -0.987878
8.75 12.2687 9.38971 0 0.15523 -0.987878
9.25 12.2687 9.38971 0 0.15523 -0.987878
9.75 12.2687 9.38971 0 0.15523 -0.987878
10.25 12.2687 9.38971 0 0.15523 -0.987878
10.75 12.2687 9.38971 0 0.15523 -0.987878
11.25 12.2687 9.38971 0 0.15523 -0.987878
11.75 12.2687 9.38971 0 0.15523 -0.987878
12.25 12.2687 9.38971 0 0.15523 -0.987878
12.75 12.2687 9.38971 0 0.15523 -0.987878
13.25 12.2687 9.38971 0 0.15523 -0.987878
13.75 12.2687 9.38971 0.251312 -0.29019 -0.92338
14.25 12.2687 9.38971 0.393496 -0.567962 -0.722897
18.75 12.2687 9.38971 -0.61451 -0.236525 -0.752618
19.25 12.2687 9.38971 0.568642 0.437741 -0.696441
1 12.7017 9.38971 -0.568642 0.437741 -0.696441
1.5 12.7017 9.38971 0.251312 -0.29019 -0.92338
2 12.7017 9.38971 0.393496 -0.567962 -0.722897
5 12.7017 9.38971 -0.393496 -0.567962 -0.722897
5.5 12.7017 9.38971 -0.251312 -0.29019 -0.92338
6 12.7017 9.38971 0 0.15523 -0.987878
6.5 12.7017 9.38971 0 0.15523 -0.987878
7 12.7017 9.38971 0 0.15523 -0.987878
7.5 12.7017 9.38971 0 0.15523 -0.987878
8 12.7017 9.38971 0.224544 0.518563 -0.825029
8.5 12.7017 9.38971 0 0.739923 -0.672692
9 12.7017 9.38971 0 0.739923 -0.672692
9.5 12.7017 9.38971 0 0.739923 -0.672692
10 12.7017 9.38971 0 0.739923 -0.672692
10.5 12.7017 9.38971 0 0.739923 -0.672692
11 12.7017 9.38971 0 0.739923 -0.672692
11.5 12.7017 9.38971 0 0.739923 -0.672692
12 12.7017 9.38971 -0.224544 0.518563 -0.825029
12.5 12.7017 9.38971 0 0.15523 -0.987878
13 12.7017 9.38971 0 0.15523 -0.987878
13.5 12.7017 9.38971 0 0.15523 -0.987878
14 12.7017 9.38971 0 0.15523 -0.987878
14.5 12.7017 9.38971 0.251312 -0.29019 -0.92338
15 12.7017 9.38971 0.393496 -0.567962 -0.722897
18 12.7017 9.38971 -0.393496 -0.567962 -0.722897
18.5 12.7017 9.38971 -0.251312 -0.29019 -0.92338
19 12.7017 9.38971 0.568642 0.437741 -0.696441
1.25 13.1347 9.38971 -0.357295 0.825137 -0.437595
1.75 13.1347 9.38971 -0.224544 0.518563 -0.825029
2.25 13.1347 9.38971 0.251312 -0.29019 -0.92338
2.75 13.1347 9.38971 0 -0.617802 -0.786334
3.25 13.1347 9.38971 0 -0.617802 -0.786334
3.75 13.1347 9.38971 0 -0.617802 -0.786334
4.25 13.1347 9.38971 0 -0.617802 -0.786334
4.75 13.1347 9.38971 -0.251312 -0.29019 -0.92338
5.25 13.1347 9.38971 0 0.15523 -0.987878
5.75 13.1347 9.38971 0 0.15523 -0.987878
6.25 13.1347 9.38971 0 0.15523 -0.987878
6.75 13.1347 9.38971 0.224544 0.518563 -0.825029
7.25 13.1347 9.38971 0 0.739923 -0.672692
7.75 13.1347 9.38971 0.343841 0.694808 -0.631676
12.25 13.1347 9.38971 -0.343841 0.694808 -0.631676
12.75 13.1347 9.38971 0 0.739923 -0.672692
13.25 13.1347 9.38971 -0.224544 0.518563 -0.825029
13.75 13.1347 9.38971 0 0.15523 -0.987878
14.25 13.1347 9.38971 0 0.15523 -0.987878
14.75 13.1347 9.38971 0 0.15523 -0.987878
15.25 13.1347 9.38971 0.251312 -0.29019 -0.92338
15.75 13.1347 9.38971 0 -0.617802 -0.786334
16.25 13.1347 9.38971 0 -0.617802 -0.786334
16.75 13.1347 9.38971 0 -0.617802 -0.786334
17.25 13.1347 9.38971 0 -0.617802 -0.786334
17.75 13.1347 9.38971 -0.251312 -0.29019 -0.92338
18.25 13.1347 9.38971 0.224544 0.518563 -0.825029
18.75 13.1347 9.38971 0.357295 0.825137 -0.437595
2 13.5677 9.38971 -0.357295 0.825137 -0.437595
2.5 13.5677 9.38971 0 0.739923 -0.672692
3 13.5677 9.38971 0 0.739923 -0.672692
3.5 13.5677 9.38971 -0.224544 0.518563 -0.825029
4 13.5677 9.38971 0 0.15523 -0.987878
4.5 13.5677 9.38971 0 0.15523 -0.987878
5 13.5677 9.38971 0.224544 0.518563 -0.825029
5.5 13.5677 9.38971 0 0.739923 -0.672692
6 13.5677 9.38971 0 0.739923 -0.672692
6.5 13.5677 9.38971 0.357295 0.825137 -0.437595
13.5 13.5677 9.38971 -0.357295 0.825137 -0.437595
14 13.5677 9.38971 0 0.739923 -0.672692
14.5 13.5677 9.38971 0 0.739923 -0.672692
15 13.5677 9.38971 -0.224544 0.518563 -0.825029
15.5 13.5677 9.38971 0 0.15523 -0.987878
16 13.5677 9.38971 0 0.15523 -0.987878
16.5 13.5677 9.38971 0.224544 0.518563 -0.825029
17 13.5677 9.38971 0 0.739923 -0.672692
17.5 13.5677 9.38971 0 0.739923 -0.672692
18 13.5677 9.38971 0.357295 0.825137 -0.437595
3.75 14.0007 9.38971 -0.357295 0.825137 -0.437595
4.25 14.0007 9.38971 0 0.883452 -0.468521
4.75 14.0007 9.38971 0.357295 0.825137 -0.437595
15.25 14.0007 9.38971 -0.357295 0.825137 -0.437595
15.75 14.0007 9.38971 0 0.883452 -0.468521
16.25 14.0007 9.38971 0.357295 0.825137 -0.437595
3 6.06218 9.79796 -0.327327 -0.944911 0
3.5 6.06218 9.79796 0 -1 0
4 6.06218 9.79796 0 -1 0
4.5 6.06218 9.79796 0 -1 0
5 6.06218 9.79796 0 -1 0
5.5 6.06218 9.79796 0 -1 0
6 6.06218 9.79796 0.489898 -0.848528 -0.2
14 6.06218 9.79796 -0.489898 -0.848528 -0.2
14.5 6.06218 9.79796 0 -1 0
15 6.06218 9.79796 0 -1 0
15.5 6.06218 9.79796 0 -1 0
16 6.06218 9.79796 0 -1 0
16.5 6.06218 9.79796 0 -1 0
17 6.06218 9.79796 0.327327 -0.944911 0
1.75 6.49519 9.79796 -0.489898 -0.848528 -0.2
2.25 6.49519 9.79796 0 -0.973328 -0.229416
2.75 6.49519 9.79796 -0.327327 -0.944911 -7.80408e-08
6.25 6.49519 9.79796 0.262613 -0.909718 -0.321634
6.75 6.49519 9.79796 0 -1 0
7.25 6.49519 9.79796 0.489898 -0.848528 -0.2
12.75 6.49519 9.79796 -0.489898 -0.848528 -0.2
13.25 6.49519 9.79796 0 -1 0
13.75 6.49519 9.79796 -0.262613 -0.909718 -0.321634
17.25 6.49519 9.79796 0.327327 -0.944911 -7.80408e-08
17.75 6.49519 9.79796 0 -0.973328 -0.229416
18.25 6.49519 9.79796 0.489898 -0.848528 -0.2
1.5 6.9282 9.79796 -0.632456 -0.730297 -0.258199
2.5 6.9282 9.79796 0.866025 0.5 -2.06477e-07
3 6.9282 9.79796 0 1 -1.03238e-07
3.5 6.9282 9.79796 0 1 -1.03238e-07
4 6.9282 9.79796 0 1 -1.03238e-07
4.5 6.9282 9.79796 -0.866025 0.5 -2.06477e-07
7.5 6.9282 9.79796 0.262613 -0.909718 -0.321634
8 6.9282 9.79796 0 -0.973328 -0.229416
8.5 6.9282 9.79796 0.184115 -0.956689 -0.225494
9 6.9282 9.79796 0.357295 -0.825137 -0.437595
11 6.9282 9.79796 -0.357295 -0.825137 -0.437595
11.5 6.9282 9.79796 -0.184115 -0.956689 -0.225494
12 6.9282 9.79796 0 -0.973328 -0.229416
12.5 6.9282 9.79796 -0.262613 -0.909718 -0.321634
15.5 6.9282 9.79796 0.866025 0.5 -2.06477e-07
16 6.9282 9.79796 0 1 -1.03238e-07
16.5 6.9282 9.79796 0 1 -1.03238e-07
17 6.9282 9.79796 0 1 -1.03238e-07
17.5 6.9282 9.79796 -0.866025 0.5 -2.06477e-07
18.5 6.9282 9.79796 0.632456 -0.730297 -0.258199
0.75 7.36122 9.79796 -0.489898 -0.848528 -0.2
1.25 7.36122 9.79796 -0.327327 -0.944911 -7.80408e-08
1.75 7.36122 9.79796 0.765092 0.441726 -0.468521
2.25 7.36122 9.79796 0.579141 0.78019 -0.236433
4.75 7.36122 9.79796 -0.579141 0.78019 -0.236433
5.25 7.36122 9.79796 -0.765092 0.441726 -0.468521
8.75 7.36122 9.79796 0 -0.816496 -0.57735
9.25 7.36122 9.79796 0.262613 -0.909718 -0.321634
9.75 7.36122 9.79796 0 -0.973328 -0.229416
10.25 7.36122 9.79796 0 -0.973328 -0.229416
10.75 7.36122 9.79796 -0.262613 -0.909718 -0.321634
11.25 7.36122 9.79796 0 -0.816496 -0.57735
14.75 7.36122 9.79796 0.765092 0.441726 -0.468521
15.25 7.36122 9.79796 0.579141 0.78019 -0.236433
17.75 7.36122 9.79796 -0.579141 0.78019 -0.236433
18.25 7.36122 9.79796 -0.765092 0.441726 -0.468521
18.75 7.36122 9.79796 0.327327 -0.944911 -7.80408e-08
19.25 7.36122 9.79796 0.489898 -0.848528 -0.2
0.5 7.79423 9.79796 -0.632456 -0.730297 -0.258199
1 7.79423 9.79796 0.866025 0.5 -2.06477e-07
1.5 7.79423 9.79796 0.755929 0.654654 0
5.5 7.79423 9.79796 -0.579141 0.78019 -0.236433
6 7.79423 9.79796 -0.765092 0.441726 -0.468521
14 7.79423 9.79796 0.765092 0.441726 -0.468521
14.5 7.79423 9.79796 0.579141 0.78019 -0.236433
18.5 7.79423 9.79796 -0.755929 0.654654 0
19 7.79423 9.79796 -0.866025 0.5 -2.06477e-07
19.5 7.79423 9.79796 0.632456 -0.730297 -0.258199
0.25 8.22724 9.79796 -0.837096 -0.483298 -0.256307
0.75 8.22724 9.79796 0.921714 0.266076 -0.282216
6.25 8.22724 9.79796 -0.944911 0.327327 0
13.75 8.22724 9.79796 0.944911 0.327327 0
19.25 8.22724 9.79796 -0.921714 0.266076 -0.282216
19.75 8.22724 9.79796 0.837096 -0.483298 -0.256307
0 8.66025 9.79796 -0.97547 -0.0938646 -0.199117
0.5 8.66025 9.79796 0.921714 0.266076 -0.282216
6.5 8.66025 9.79796 -0.944911 0.327327 0
13.5 8.66025 9.79796 0.944911 0.327327 0
19.5 8.66025 9.79796 -0.921714 0.266076 -0.282216
20 8.66025 9.79796 0.726273 -0.524142 -0.44475
0.25 9.09327 9.79796 0 -1 -2.06477e-07
6.75 9.09327 9.79796 -0.944911 0.327327 0
13.25 9.09327 9.79796 0.944911 0.327327 0
19.75 9.09327 9.79796 -0.866025 -0.5 -1.03238e-07
20.25 9.09327 9.79796 0.97547 -0.0938646 -0.199117
0 9.52628 9.79796 -1 0 0
0.5 9.52628 9.79796 1 0 0
7 9.52628 9.79796 -0.911465 -0.175412 -0.372104
13 9.52628 9.79796 0.911465 -0.175412 -0.372104
19.5 9.52628 9.79796 -1 0 0
20 9.52628 9.79796 0.866025 -0.5 -1.03238e-07
0.25 9.95929 9.79796 0.594088 -0.342997 -0.727607
6.75 9.95929 9.79796 -0.898027 0 -0.439941
7.25 9.95929 9.79796 -0.594088 -0.342997 -0.727607
12.75 9.95929 9.79796 0.594088 -0.342997 -0.727607
13.25 9.95929 9.79796 0.898027 0 -0.439941
19.75 9.95929 9.79796 -0.911465 -0.175412 -0.372104
20.25 9.95929 9.79796 1 0 0
0 10.3923 9.79796 -1 0 0
0.5 10.3923 9.79796 0.97547 -0.0938646 -0.199117
7 10.3923 9.79796 -0.742307 -0.285714 -0.606092
13 10.3923 9.79796 0.742307 -0.285714 -0.606092
19.5 10.3923 9.79796 -0.97547 -0.0938646 -0.199117
20 10.3923 9.79796 0.866025 -0.5 -1.03238e-07
0.25 10.8253 9.79796 0 -1 -2.06477e-07
6.75 10.8253 9.79796 -0.726273 -0.524142 -0.44475
13.25 10.8253 9.79796 0.726273 -0.524142 -0.44475
19.75 10.8253 9.79796 -0.866025 -0.5 -1.03238e-07
20.25 10.8253 9.79796 1 0 0
0 11.2583 9.79796 -1 0 0
0.5 11.2583 9.79796 0.720577 -0.693375 -5.72663e-08
6.5 11.2583 9.79796 -0.726273 -0.524142 -0.44475
13.5 11.2583 9.79796 0.726273 -0.524142 -0.44475
19.5 11.2583 9.79796 -0.720577 -0.693375 -5.72663e-08
20 11.2583 9.79796 0.944911 0.327327 0
0.25 11.6913 9.79796 -0.944911 0.327327 0
0.75 11.6913 9.79796 0.720577 -0.693375 -5.72663e-08
6.25 11.6913 9.79796 -0.726273 -0.524142 -0.44475
13.75 11.6913 9.79796 0.726273 -0.524142 -0.44475
19.25 11.6913 9.79796 -0.720577 -0.693375 -5.72663e-08
19.75 11.6913 9.79796 0.944911 0.327327 0
0.5 12.1244 9.79796 -0.944911 0.327327 0
1 12.1244 9.79796 0.327327 -0.944911 -7.80408e-08
1.5 12.1244 9.79796 0.489898 -0.848528 -0.2
5.5 12.1244 9.79796 -0.489898 -0.848528 -0.2
6 12.1244 9.79796 -0.262613 -0.909718 -0.321634
14 12.1244 9.79796 0.262613 -0.909718 -0.321634
14.5 12.1244 9.79796 0.489898 -0.848528 -0.2
18.5 12.1244 9.79796 -0.489898 -0.848528 -0.2
19 12.1244 9.79796 -0.327327 -0.944911 -7.80408e-08
19.5 12.1244 9.79796 0.944911 0.327327 0
0.75 12.5574 9.79796 -0.944911 0.327327 0
1.75 12.5574 9.79796 0.262613 -0.909718 -0.321634
2.25 12.5574 9.79796 0.489898 -0.848528 -0.2
4.75 12.5574 9.79796 -0.489898 -0.848528 -0.2
5.25 12.5574 9.79796 -0.262613 -0.909718 -0.321634
14.75 12.5574 9.79796 0.262613 -0.909718 -0.321634
15.25 12.5574 9.79796 0.489898 -0.848528 -0.2
17.75 12.5574 9.79796 -0.489898 -0.848528 -0.2
18.25 12.5574 9.79796 -0.262613 -0.909718 -0.321634
19.25 12.5574 9.79796 0.944911 0.327327 0
1 12.9904 9.79796 -0.755929 0.654654 0
1.5 12.9904 9.79796 -0.866025 0.5 -2.06477e-07
2.5 12.9904 9.79796 0.262613 -0.909718 -0.321634
3 12.9904 9.79796 0 -1 0
3.5 12.9904 9.79796 0 -1 0
4 12.9904 9.79796 0 -1 0
4.5 12.9904 9.79796 -0.262613 -0.909718 -0.321634
8 12.9904 9.79796 0.765092 0.441726 -0.468521
8.5 12.9904 9.79796 0 0.816497 -0.57735
9 12.9904 9.79796 0.230429 0.931266 -0.282216
9.5 12.9904 9.79796 0 1 0
10 12.9904 9.79796 0 1 0
10.5 12.9904 9.79796 0 1 0
11 12.9904 9.79796 -0.230429 0.931266 -0.282216
11.5 12.9904 9.79796 0 0.816497 -0.57735
12 12.9904 9.79796 -0.765092 0.441726 -0.468521
15.5 12.9904 9.79796 0.262613 -0.909718 -0.321634
16 12.9904 9.79796 0 -1 0
16.5 12.9904 9.79796 0 -1 0
17 12.9904 9.79796 0 -1 0
17.5 12.9904 9.79796 -0.262613 -0.909718 -0.321634
18.5 12.9904 9.79796 0.866025 0.5 -2.06477e-07
19 12.9904 9.79796 0.755929 0.654654 0
1.75 13.4234 9.79796 -0.755929 0.654654 0
2.25 13.4234 9.79796 -0.866025 0.5 -2.06477e-07
6.25 13.4234 9.79796 0.866025 0.5 -2.06477e-07
6.75 13.4234 9.79796 0.303822 0.877058 -0.372104
7.25 13.4234 9.79796 0.230429 0.931266 -0.282216
7.75 13.4234 9.79796 0.39736 0.917663 0
12.25 13.4234 9.79796 -0.39736 0.917663 0
12.75 13.4234 9.79796 -0.230429 0.931266 -0.282216
13.25 13.4234 9.79796 -0.303822 0.877058 -0.372104
13.75 13.4234 9.79796 -0.866025 0.5 -2.06477e-07
17.75 13.4234 9.79796 0.866025 0.5 -2.06477e-07
18.25 13.4234 9.79796 0.755929 0.654654 0
2.5 13.8564 9.79796 -0.39736 0.917663 0
3 13.8564 9.79796 -0.230429 0.931266 -0.282216
3.5 13.8564 9.79796 -0.303822 0.877058 -0.372104
4 13.8564 9.79796 0 1 -1.03238e-07
4.5 13.8564 9.79796 0 1 -1.03238e-07
5 13.8564 9.79796 0.303822 0.877058 -0.372104
5.5 13.8564 9.79796 0 0.816497 -0.57735
6 13.8564 9.79796 0.579141 0.78019 -0.236433
14 13.8564 9.79796 -0.579141 0.78019 -0.236433
14.5 13.8564 9.79796 0 0.816497 -0.57735
15 13.8564 9.79796 -0.303822 0.877058 -0.372104
15.5 13.8564 9.79796 0 1 -1.03238e-07
16 13.8564 9.79796 0 1 -1.03238e-07
16.5 13.8564 9.79796 0.303822 0.877058 -0.372104
17 13.8564 9.79796 0.230429 0.931266 -0.282216
17.5 13.8564 9.79796 0.39736 0.917663 0
2.25 6.20652 10.2062 -0.39736 -0.917663 0
2.75 6.20652 10.2062 -0.230429 -0.931266 0.282216
3.25 6.20652 10.2062 -0.303822 -0.877058 0.372104
3.75 6.20652 10.2062 0 -1 -1.03238e-07
4.25 6.20652 10.2062 0 -1 -1.03238e-07
4.75 6.20652 10.2062 0 -1 -1.03238e-07
5.25 6.20652 10.2062 0.303822 -0.877058 0.372104
5.75 6.20652 10.2062 0 -0.816497 0.57735
6.25 6.20652 10.2062 0.579141 -0.78019 0.236433
13.75 6.20652 10.2062 -0.579141 -0.78019 0.236433
14.25 6.20652 10.2062 0 -0.816497 0.57735
14.75 6.20652 10.2062 -0.303822 -0.877058 0.372104
15.25 6.20652 10.2062 0 -1 -1.03238e-07
15.75 6.20652 10.2062 0 -1 -1.03238e-07
16.25 6.20652 10.2062 0 -1 -1.03238e-07
16.75 6.20652 10.2062 0.303822 -0.877058 0.372104
17.25 6.20652 10.2062 0.230429 -0.931266 0.282216
17.75 6.20652 10.2062 0.39736 -0.917663 0
1.5 6.63953 10.2062 -0.579141 -0.78019 0.236433
2 6.63953 10.2062 -0.765092 -0.441726 0.468521
6.5 6.63953 10.2062 0.866025 -0.5 -2.06477e-07
7 6.63953 10.2062 0.303822 -0.877058 0.372104
7.5 6.63953 10.2062 0.230429 -0.931266 0.282216
8 6.63953 10.2062 0.39736 -0.917663 0
12 6.63953 10.2062 -0.39736 -0.917663 0
12.5 6.63953 10.2062 -0.230429 -0.931266 0.282216
13 6.63953 10.2062 -0.303822 -0.877058 0.372104
13.5 6.63953 10.2062 -0.866025 -0.5 -2.06477e-07
18 6.63953 10.2062 0.765092 -0.441726 0.468521
18.5 6.63953 10.2062 0.579141 -0.78019 0.236433
1.25 7.07254 10.2062 -0.944911 -0.327327 0
2.25 7.07254 10.2062 0.262613 0.909718 0.321634
2.75 7.07254 10.2062 0 1 0
3.25 7.07254 10.2062 0 1 0
3.75 7.07254 10.2062 0 1 0
4.25 7.07254 10.2062 0 1 0
4.75 7.07254 10.2062 -0.262613 0.909718 0.321634
8.25 7.07254 10.2062 0.765092 -0.441726 0.468521
8.75 7.07254 10.2062 0 -0.816497 0.57735
9.25 7.07254 10.2062 0.230429 -0.931266 0.282216
9.75 7.07254 10.2062 0 -1 0
10.25 7.07254 10.2062 0 -1 0
10.75 7.07254 10.2062 -0.230429 -0.931266 0.282216
11.25 7.07254 10.2062 0 -0.816497 0.57735
11.75 7.07254 10.2062 -0.765092 -0.441726 0.468521
15.25 7.07254 10.2062 0.262613 0.909718 0.321634
15.75 7.07254 10.2062 0 1 0
16.25 7.07254 10.2062 0 1 0
16.75 7.07254 10.2062 0 1 0
17.25 7.07254 10.2062 0 1 0
17.75 7.07254 10.2062 -0.262613 0.909718 0.321634
18.75 7.07254 10.2062 0.944911 -0.327327 0
0.5 7.50555 10.2062 -0.755929 -0.654654 0
1 7.50555 10.2062 -0.866025 -0.5 -2.06477e-07
1.5 7.50555 10.2062 0.262613 0.909718 0.321634
2 7.50555 10.2062 0.489898 0.848528 0.2
5 7.50555 10.2062 -0.489898 0.848528 0.2
5.5 7.50555 10.2062 -0.262613 0.909718 0.321634
14.5 7.50555 10.2062 0.262613 0.909718 0.321634
15 7.50555 10.2062 0.489898 0.848528 0.2
18 7.50555 10.2062 -0.489898 0.848528 0.2
18.5 7.50555 10.2062 -0.262613 0.909718 0.321634
19 7.50555 10.2062 0.866025 -0.5 -2.06477e-07
19.5 7.50555 10.2062 0.755929 -0.654654 0
0.25 7.93857 10.2062 -0.944911 -0.327327 0
1.25 7.93857 10.2062 0.73646 0.637793 0.225494
5.75 7.93857 10.2062 -0.489898 0.848528 0.2
6.25 7.93857 10.2062 -0.262613 0.909718 0.321634
13.75 7.93857 10.2062 0.262613 0.909718 0.321634
14.25 7.93857 10.2062 0.489898 0.848528 0.2
18.75 7.93857 10.2062 -0.73646 0.637793 0.225494
19.75 7.93857 10.2062 0.944911 -0.327327 0
0 8.37158 10.2062 -1 0 0
1 8.37158 10.2062 0.866025 0.5 0
6.5 8.37158 10.2062 -0.726273 0.524142 0.44475
13.5 8.37158 10.2062 0.726273 0.524142 0.44475
19 8.37158 10.2062 -0.866025 0.5 0
20 8.37158 10.2062 0.944911 -0.327327 0
0.25 8.80459 10.2062 -0.866025 0.5 -1.03238e-07
0.75 8.80459 10.2062 0.866025 0.5 0
6.75 8.80459 10.2062 -0.726273 0.524142 0.44475
13.25 8.80459 10.2062 0.726273 0.524142 0.44475
19.25 8.80459 10.2062 -0.866025 0.5 0
20.25 8.80459 10.2062 1 0 0
0 9.2376 10.2062 -1 0 0
0.5 9.2376 10.2062 0.886194 0.409316 0.217072
7 9.2376 10.2062 -0.742307 0.285714 0.606092
13 9.2376 10.2062 0.742307 0.285714 0.606092
19.5 9.2376 10.2062 -0.886194 0.409316 0.217072
20 9.2376 10.2062 0.866025 0.5 -1.03238e-07
0.25 9.67062 10.2062 0.594088 0.342997 0.727607
6.75 9.67062 10.2062 -0.898027 0 0.439941
7.25 9.67062 10.2062 -0.594088 0.342997 0.727607
12.75 9.67062 10.2062 0.594088 0.342997 0.727607
13.25 9.67062 10.2062 0.898027 0 0.439941
19.75 9.67062 10.2062 -0.911466 0.175412 0.372104
20.25 9.67062 10.2062 1 0 0
0 10.1036 10.2062 -1 0 0
0.5 10.1036 10.2062 0.97547 0.0938646 0.199117
7 10.1036 10.2062 -0.742307 0.285714 0.606092
13 10.1036 10.2062 0.742307 0.285714 0.606092
19.5 10.1036 10.2062 -0.97547 0.0938646 0.199117
20 10.1036 10.2062 0.866025 0.5 -1.03238e-07
0.25 10.5366 10.2062 0.594088 0.342997 0.727607
6.75 10.5366 10.2062 -0.8 -0.34641 0.489898
7.25 10.5366 10.2062 -0.594088 0.342997 0.727607
12.75 10.5366 10.2062 0.594088 0.342997 0.727607
13.25 10.5366 10.2062 0.8 -0.34641 0.489898
19.75 10.5366 10.2062 -0.911466 0.175412 0.372104
20.25 10.5366 10.2062 1 0 0
0 10.9697 10.2062 -1 0 0
0.5 10.9697 10.2062 0.944911 -0.327327 0
6.5 10.9697 10.2062 -0.8 -0.34641 0.489898
7 10.9697 10.2062 -0.594088 0.342997 0.727607
13 10.9697 10.2062 0.594088 0.342997 0.727607
13.5 10.9697 10.2062 0.8 -0.34641 0.489898
19.5 10.9697 10.2062 -0.944911 -0.327327 0
20 10.9697 10.2062 0.720577 0.693375 -5.72663e-08
0.25 11.4027 10.2062 -0.720577 0.693375 -5.72663e-08
0.75 11.4027 10.2062 0.944911 -0.327327 0
6.25 11.4027 10.2062 -0.8 -0.34641 0.489898
6.75 11.4027 10.2062 -0.594088 0.342997 0.727607
13.25 11.4027 10.2062 0.594088 0.342997 0.727607
13.75 11.4027 10.2062 0.8 -0.34641 0.489898
19.25 11.4027 10.2062 -0.944911 -0.327327 0
19.75 11.4027 10.2062 0.720577 0.693375 -5.72663e-08
0.5 11.8357 10.2062 -0.720577 0.693375 -5.72663e-08
1 11.8357 10.2062 0.944911 -0.327327 0
6 11.8357 10.2062 -0.837096 -0.483298 0.256307
6.5 11.8357 10.2062 -0.594088 0.342997 0.727607
13.5 11.8357 10.2062 0.594088 0.342997 0.727607
14 11.8357 10.2062 0.837096 -0.483298 0.256307
19 11.8357 10.2062 -0.944911 -0.327327 0
19.5 11.8357 10.2062 0.720577 0.693375 -5.72663e-08
0.75 12.2687 10.2062 -0.720577 0.693375 -5.72663e-08
1.25 12.2687 10.2062 0.765092 -0.441726 0.468521
1.75 12.2687 10.2062 0.579141 -0.78019 0.236433
5.25 12.2687 10.2062 -0.579141 -0.78019 0.236433
5.75 12.2687 10.2062 -0.765092 -0.441726 0.468521
14.25 12.2687 10.2062 0.765092 -0.441726 0.468521
14.75 12.2687 10.2062 0.579141 -0.78019 0.236433
18.25 12.2687 10.2062 -0.579141 -0.78019 0.236433
18.75 12.2687 10.2062 -0.765092 -0.441726 0.468521
19.25 12.2687 10.2062 0.720577 0.693375 -5.72663e-08
1 12.7017 10.2062 -0.632456 0.730297 0.258199
2 12.7017 10.2062 0.765092 -0.441726 0.468521
2.5 12.7017 10.2062 0.579141 -0.78019 0.236433
4.5 12.7017 10.2062 -0.579141 -0.78019 0.236433
5 12.7017 10.2062 -0.765092 -0.441726 0.468521
8.5 12.7017 10.2062 0 0.816497 0.57735
9 12.7017 10.2062 0.262613 0.909718 0.321634
9.5 12.7017 10.2062 0 0.973328 0.229416
10 12.7017 10.2062 0 0.973328 0.229416
10.5 12.7017 10.2062 0 0.973328 0.229416
11 12.7017 10.2062 -0.262613 0.909718 0.321634
11.5 12.7017 10.2062 0 0.816497 0.57735
15 12.7017 10.2062 0.765092 -0.441726 0.468521
15.5 12.7017 10.2062 0.579141 -0.78019 0.236433
17.5 12.7017 10.2062 -0.579141 -0.78019 0.236433
18 12.7017 10.2062 -0.765092 -0.441726 0.468521
19 12.7017 10.2062 0.632456 0.730297 0.258199
1.25 13.1347 10.2062 -0.489898 0.848528 0.2
1.75 13.1347 10.2062 -0.327327 0.944911 -7.80408e-08
2.75 13.1347 10.2062 0.866025 -0.5 -2.06477e-07
3.25 13.1347 10.2062 0 -1 -1.03238e-07
3.75 13.1347 10.2062 0 -1 -1.03238e-07
4.25 13.1347 10.2062 -0.866025 -0.5 -2.06477e-07
7.25 13.1347 10.2062 0.327327 0.944911 -7.80408e-08
7.75 13.1347 10.2062 0 0.973328 0.229416
8.25 13.1347 10.2062 0.184115 0.956689 0.225494
8.75 13.1347 10.2062 0.357295 0.825137 0.437595
11.25 13.1347 10.2062 -0.357295 0.825137 0.437595
11.75 13.1347 10.2062 -0.184115 0.956689 0.225494
12.25 13.1347 10.2062 0 0.973328 0.229416
12.75 13.1347 10.2062 -0.327327 0.944911 -7.80408e-08
15.75 13.1347 10.2062 0.866025 -0.5 -2.06477e-07
16.25 13.1347 10.2062 0 -1 -1.03238e-07
16.75 13.1347 10.2062 0 -1 -1.03238e-07
17.25 13.1347 10.2062 -0.866025 -0.5 -2.06477e-07
18.25 13.1347 10.2062 0.327327 0.944911 -7.80408e-08
18.75 13.1347 10.2062 0.489898 0.848528 0.2
2 13.5677 10.2062 -0.327327 0.944911 0
2.5 13.5677 10.2062 0 0.973328 0.229416
3 13.5677 10.2062 -0.327327 0.944911 -7.80408e-08
6 13.5677 10.2062 0.262613 0.909718 0.321634
6.5 13.5677 10.2062 0 1 0
7 13.5677 10.2062 0.327327 0.944911 0
13 13.5677 10.2062 -0.327327 0.944911 0
13.5 13.5677 10.2062 0 1 0
14 13.5677 10.2062 -0.262613 0.909718 0.321634
17 13.5677 10.2062 0.327327 0.944911 -7.80408e-08
17.5 13.5677 10.2062 0 0.973328 0.229416
18 13.5677 10.2062 0.327327 0.944911 0
3.25 14.0007 10.2062 -0.327327 0.944911 0
3.75 14.0007 10.2062 0 1 0
4.25 14.0007 10.2062 0 1 0
4.75 14.0007 10.2062 0 1 0
5.25 14.0007 10.2062 0 1 0
5.75 14.0007 10.2062 0.489898 0.848528 0.2
14.25 14.0007 10.2062 -0.489898 0.848528 0.2
14.75 14.0007 10.2062 0 1 0
15.25 14.0007 10.2062 0 1 0
15.75 14.0007 10.2062 0 1 0
16.25 14.0007 10.2062 0 1 0
16.75 14.0007 10.2062 0.327327 0.944911 0
3.5 6.06218 10.6145 -0.357295 -0.825137 0.437595
4 6.06218 10.6145 0 -0.883452 0.468521
4.5 6.06218 10.6145 0 -0.883452 0.468521
5 6.06218 10.6145 0.357295 -0.825137 0.437595
15 6.06218 10.6145 -0.357295 -0.825137 0.437595
15.5 6.06218 10.6145 0 -0.883452 0.468521
16 6.06218 10.6145 0 -0.883452 0.468521
16.5 6.06218 10.6145 0.357295 -0.825137 0.437595
2.25 6.49519 10.6145 -0.343841 -0.694808 0.631676
2.75 6.49519 10.6145 0 -0.739923 0.672692
3.25 6.49519 10.6145 -0.224544 -0.518563 0.825029
3.75 6.49519 10.6145 0 -0.15523 0.987878
4.25 6.49519 10.6145 0 -0.15523 0.987878
4.75 6.49519 10.6145 0 -0.15523 0.987878
5.25 6.49519 10.6145 0.224544 -0.518563 0.825029
5.75 6.49519 10.6145 0 -0.739923 0.672692
6.25 6.49519 10.6145 0 -0.739923 0.672692
6.75 6.49519 10.6145 0.357295 -0.825137 0.437595
13.25 6.49519 10.6145 -0.357295 -0.825137 0.437595
13.75 6.49519 10.6145 0 -0.739923 0.672692
14.25 6.49519 10.6145 0 -0.739923 0.672692
14.75 6.49519 10.6145 -0.224544 -0.518563 0.825029
15.25 6.49519 10.6145 0 -0.15523 0.987878
15.75 6.49519 10.6145 0 -0.15523 0.987878
16.25 6.49519 10.6145 0 -0.15523 0.987878
16.75 6.49519 10.6145 0.224544 -0.518563 0.825029
17.25 6.49519 10.6145 0 -0.739923 0.672692
17.75 6.49519 10.6145 0.343841 -0.694808 0.631676
1.5 6.9282 10.6145 -0.343841 -0.694808 0.631676
2 6.9282 10.6145 0 -0.15523 0.987878
2.5 6.9282 10.6145 0 0.617802 0.786334
3 6.9282 10.6145 0 0.617802 0.786334
3.5 6.9282 10.6145 0 0.617802 0.786334
4 6.9282 10.6145 0 0.617802 0.786334
4.5 6.9282 10.6145 0 0.617802 0.786334
5 6.9282 10.6145 -0.251312 0.29019 0.92338
5.5 6.9282 10.6145 0 -0.15523 0.987878
6 6.9282 10.6145 0 -0.15523 0.987878
6.5 6.9282 10.6145 0 -0.15523 0.987878
7 6.9282 10.6145 0.224544 -0.518563 0.825029
7.5 6.9282 10.6145 0 -0.739923 0.672692
8 6.9282 10.6145 0.343841 -0.694808 0.631676
12 6.9282 10.6145 -0.343841 -0.694808 0.631676
12.5 6.9282 10.6145 0 -0.739923 0.672692
13 6.9282 10.6145 -0.224544 -0.518563 0.825029
13.5 6.9282 10.6145 0 -0.15523 0.987878
14 6.9282 10.6145 0 -0.15523 0.987878
14.5 6.9282 10.6145 0 -0.15523 0.987878
15 6.9282 10.6145 0.251312 0.29019 0.92338
15.5 6.9282 10.6145 0 0.617802 0.786334
16 6.9282 10.6145 0 0.617802 0.786334
16.5 6.9282 10.6145 0 0.617802 0.786334
17 6.9282 10.6145 0 0.617802 0.786334
17.5 6.9282 10.6145 0 0.617802 0.786334
18 6.9282 10.6145 0 -0.15523 0.987878
18.5 6.9282 10.6145 0.343841 -0.694808 0.631676
0.75 7.36122 10.6145 -0.357295 -0.825137 0.437595
1.25 7.36122 10.6145 0 -0.15523 0.987878
1.75 7.36122 10.6145 0.393496 0.567962 0.722897
5.25 7.36122 10.6145 -0.393496 0.567962 0.722897
5.75 7.36122 10.6145 -0.251312 0.29019 0.92338
6.25 7.36122 10.6145 0 -0.15523 0.987878
6.75 7.36122 10.6145 0 -0.15523 0.987878
7.25 7.36122 10.6145 0 -0.15523 0.987878
7.75 7.36122 10.6145 0 -0.15523 0.987878
8.25 7.36122 10.6145 0.224544 -0.518563 0.825029
8.75 7.36122 10.6145 0 -0.739923 0.672692
9.25 7.36122 10.6145 0 -0.739923 0.672692
9.75 7.36122 10.6145 0 -0.739923 0.672692
10.25 7.36122 10.6145 0 -0.739923 0.672692
10.75 7.36122 10.6145 0 -0.739923 0.672692
11.25 7.36122 10.6145 0 -0.739923 0.672692
11.75 7.36122 10.6145 -0.224544 -0.518563 0.825029
12.25 7.36122 10.6145 0 -0.15523 0.987878
12.75 7.36122 10.6145 0 -0.15523 0.987878
13.25 7.36122 10.6145 0 -0.15523 0.987878
13.75 7.36122 10.6145 0 -0.15523 0.987878
14.25 7.36122 10.6145 0.251312 0.29019 0.92338
14.75 7.36122 10.6145 0.393496 0.567962 0.722897
18.25 7.36122 10.6145 -0.393496 0.567962 0.722897
18.75 7.36122 10.6145 0 -0.15523 0.987878
19.25 7.36122 10.6145 0.357295 -0.825137 0.437595
0.5 7.79423 10.6145 -0.568642 -0.437741 0.696441
1 7.79423 10.6145 0.61451 0.236525 0.752618
6 7.79423 10.6145 -0.393496 0.567962 0.722897
6.5 7.79423 10.6145 -0.251312 0.29019 0.92338
7 7.79423 10.6145 0 -0.15523 0.987878
7.5 7.79423 10.6145 0 -0.15523 0.987878
8 7.79423 10.6145 0 -0.15523 0.987878
8.5 7.79423 10.6145 0 -0.15523 0.987878
9 7.79423 10.6145 0 -0.15523 0.987878
9.5 7.79423 10.6145 0 -0.15523 0.987878
10 7.79423 10.6145 0 -0.15523 0.987878
10.5 7.79423 10.6145 0 -0.15523 0.987878
11 7.79423 10.6145 0 -0.15523 0.987878
11.5 7.79423 10.6145 0 -0.15523 0.987878
12 7.79423 10.6145 0 -0.15523 0.987878
12.5 7.79423 10.6145 0 -0.15523 0.987878
13 7.79423 10.6145 0 -0.15523 0.987878
13.5 7.79423 10.6145 0.251312 0.29019 0.92338
14 7.79423 10.6145 0.393496 0.567962 0.722897
19 7.79423 10.6145 -0.61451 0.236525 0.752618
19.5 7.79423 10.6145 0.568642 -0.437741 0.696441
0.25 8.22724 10.6145 -0.568642 -0.437741 0.696441
0.75 8.22724 10.6145 0.61451 0.236525 0.752618
6.75 8.22724 10.6145 -0.61451 0.236525 0.752618
7.25 8.22724 10.6145 0 -0.15523 0.987878
7.75 8.22724 10.6145 0 -0.15523 0.987878
8.25 8.22724 10.6145 0 -0.15523 0.987878
8.75 8.22724 10.6145 0 -0.15523 0.987878
9.25 8.22724 10.6145 0 -0.15523 0.987878
9.75 8.22724 10.6145 0 -0.15523 0.987878
10.25 8.22724 10.6145 0 -0.15523 0.987878
10.75 8.22724 10.6145 0 -0.15523 0.987878
11.25 8.22724 10.6145 0 -0.15523 0.987878
11.75 8.22724 10.6145 0 -0.15523 0.987878
12.25 8.22724 10.6145 0 -0.15523 0.987878
12.75 8.22724 10.6145 0 -0.15523 0.987878
13.25 8.22724 10.6145 0.61451 0.236525 0.752618
19.25 8.22724 10.6145 -0.61451 0.236525 0.752618
19.75 8.22724 10.6145 0.568642 -0.437741 0.696441
0 8.66025 10.6145 -0.898027 0 0.439941
0.5 8.66025 10.6145 0.61451 0.236525 0.752618
7 8.66025 10.6145 -0.61451 0.236525 0.752618
7.5 8.66025 10.6145 0 -0.15523 0.987878
8 8.66025 10.6145 0 -0.15523 0.987878
8.5 8.66025 10.6145 0 -0.15523 0.987878
9 8.66025 10.6145 0 -0.15523 0.987878
9.5 8.66025 10.6145 0 -0.15523 0.987878
10 8.66025 10.6145 0 -0.15523 0.987878
10.5 8.66025 10.6145 0 -0.15523 0.987878
11 8.66025 10.6145 0 -0.15523 0.987878
11.5 8.66025 10.6145 0 -0.15523 0.987878
12 8.66025 10.6145 0 -0.15523 0.987878
12.5 8.66025 10.6145 0 -0.15523 0.987878
13 8.66025 10.6145 0.61451 0.236525 0.752618
19.5 8.66025 10.6145 -0.61451 0.236525 0.752618
20 8.66025 10.6145 0.568642 -0.437741 0.696441
0.25 9.09327 10.6145 0.251312 0.29019 0.92338
7.25 9.09327 10.6145 -0.61451 0.236525 0.752618
7.75 9.09327 10.6145 0 -0.15523 0.987878
8.25 9.09327 10.6145 0 -0.15523 0.987878
8.75 9.09327 10.6145 0 -0.15523 0.987878
9.25 9.09327 10.6145 0 -0.15523 0.987878
9.75 9.09327 10.6145 0 -0.15523 0.987878
10.25 9.09327 10.6145 0 -0.15523 0.987878
10.75 9.09327 10.6145 0 -0.15523 0.987878
11.25 9.09327 10.6145 0 -0.15523 0.987878
11.75 9.09327 10.6145 0 -0.15523 0.987878
12.25 9.09327 10.6145 0 -0.15523 0.987878
12.75 9.09327 10.6145 0.61451 0.236525 0.752618
19.75 9.09327 10.6145 -0.61451 0.236525 0.752618
20.25 9.09327 10.6145 0.898027 0 0.439941
0 9.52628 10.6145 -0.774597 0 0.632456
7.5 9.52628 10.6145 -0.473602 -0.136717 0.870063
8 9.52628 10.6145 0 -0.15523 0.987878
8.5 9.52628 10.6145 0 -0.15523 0.987878
9 9.52628 10.6145 0 -0.15523 0.987878
9.5 9.52628 10.6145 0 -0.15523 0.987878
10 9.52628 10.6145 0 -0.15523 0.987878
10.5 9.52628 10.6145 0 -0.15523 0.987878
11 9.52628 10.6145 0 -0.15523 0.987878
11.5 9.52628 10.6145 0 -0.15523 0.987878
12 9.52628 10.6145 0 -0.15523 0.987878
12.5 9.52628 10.6145 0.473602 -0.136717 0.870063
20 9.52628 10.6145 0 -0.15523 0.987878
0.25 9.95929 10.6145 0.473602 -0.136717 0.870063
7.25 9.95929 10.6145 -0.732334 -0.105703 0.672692
7.75 9.95929 10.6145 0 -0.15523 0.987878
8.25 9.95929 10.6145 0 -0.15523 0.987878
8.75 9.95929 10.6145 0 -0.15523 0.987878
9.25 9.95929 10.6145 0 -0.15523 0.987878
9.75 9.95929 10.6145 0 -0.15523 0.987878
10.25 9.95929 10.6145 0 -0.15523 0.987878
10.75 9.95929 10.6145 0 -0.15523 0.987878
11.25 9.95929 10.6145 0 -0.15523 0.987878
11.75 9.95929 10.6145 0 -0.15523 0.987878
12.25 9.95929 10.6145 0 -0.15523 0.987878
12.75 9.95929 10.6145 0.732334 -0.105703 0.672692
19.75 9.95929 10.6145 -0.732334 -0.105703 0.672692
20.25 9.95929 10.6145 0.898027 0 0.439941
0 10.3923 10.6145 -0.774597 0 0.632456
7.5 10.3923 10.6145 -0.473602 -0.136717 0.870063
8 10.3923 10.6145 0 -0.15523 0.987878
8.5 10.3923 10.6145 0 -0.15523 0.987878
9 10.3923 10.6145 0 -0.15523 0.987878
9.5 10.3923 10.6145 0 -0.15523 0.987878
10 10.3923 10.6145 0 -0.15523 0.987878
10.5 10.3923 10.6145 0 -0.15523 0.987878
11 10.3923 10.6145 0 -0.15523 0.987878
11.5 10.3923 10.6145 0 -0.15523 0.987878
12 10.3923 10.6145 0 -0.15523 0.987878
12.5 10.3923 10.6145 0.473602 -0.136717 0.870063
20 10.3923 10.6145 0 -0.15523 0.987878
0.25 10.8253 10.6145 0.224544 -0.518563 0.825029
7.25 10.8253 10.6145 -0.568642 -0.437741 0.696441
7.75 10.8253 10.6145 0 -0.15523 0.987878
8.25 10.8253 10.6145 0 -0.15523 0.987878
8.75 10.8253 10.6145 0 -0.15523 0.987878
9.25 10.8253 10.6145 0 -0.15523 0.987878
9.75 10.8253 10.6145 0 -0.15523 0.987878
10.25 10.8253 10.6145 0 -0.15523 0.987878
10.75 10.8253 10.6145 0 -0.15523 0.987878
11.25 10.8253 10.6145 0 -0.15523 0.987878
11.75 10.8253 10.6145 0 -0.15523 0.987878
12.25 10.8253 10.6145 0 -0.15523 0.987878
12.75 10.8253 10.6145 0.568642 -0.437741 0.696441
19.75 10.8253 10.6145 -0.568642 -0.437741 0.696441
20.25 10.8253 10.6145 0.898027 0 0.439941
0 11.2583 10.6145 -0.898027 0 0.439941
0.5 11.2583 10.6145 0.568642 -0.437741 0.696441
7 11.2583 10.6145 -0.568642 -0.437741 0.696441
7.5 11.2583 10.6145 0 -0.15523 0.987878
8 11.2583 10.6145 0 -0.15523 0.987878
8.5 11.2583 10.6145 0 -0.15523 0.987878
9 11.2583 10.6145 0 -0.15523 0.987878
9.5 11.2583 10.6145 0 -0.15523 0.987878
10 11.2583 10.6145 0 -0.15523 0.987878
10.5 11.2583 10.6145 0 -0.15523 0.987878
11 11.2583 10.6145 0 -0.15523 0.987878
11.5 11.2583 10.6145 0 -0.15523 0.987878
12 11.2583 10.6145 0 -0.15523 0.987878
12.5 11.2583 10.6145 0 -0.15523 0.987878
13 11.2583 10.6145 0.568642 -0.437741 0.696441
19.5 11.2583 10.6145 -0.568642 -0.437741 0.696441
20 11.2583 10.6145 0.8 0.34641 0.489898
0.25 11.6913 10.6145 -0.8 0.34641 0.489898
0.75 11.6913 10.6145 0.568642 -0.437741 0.696441
6.75 11.6913 10.6145 -0.568642 -0.437741 0.696441
7.25 11.6913 10.6145 0 -0.15523 0.987878
7.75 11.6913 10.6145 0 -0.15523 0.987878
8.25 11.6913 10.6145 0 -0.15523 0.987878
8.75 11.6913 10.6145 0 -0.15523 0.987878
9.25 11.6913 10.6145 0 -0.15523 0.987878
9.75 11.6913 10.6145 0 -0.15523 0.987878
10.25 11.6913 10.6145 0 -0.15523 0.987878
10.75 11.6913 10.6145 0 -0.15523 0.987878
11.25 11.6913 10.6145 0 -0.15523 0.987878
11.75 11.6913 10.6145 0 -0.15523 0.987878
12.25 11.6913 10.6145 0 -0.15523 0.987878
12.75 11.6913 10.6145 0 -0.15523 0.987878
13.25 11.6913 10.6145 0.568642 -0.437741 0.696441
19.25 11.6913 10.6145 -0.568642 -0.437741 0.696441
19.75 11.6913 10.6145 0.8 0.34641 0.489898
0.5 12.1244 10.6145 -0.8 0.34641 0.489898
1 12.1244 10.6145 0.568642 -0.437741 0.696441
6 12.1244 10.6145 -0.343841 -0.694808 0.631676
6.5 12.1244 10.6145 -0.224544 -0.518563 0.825029
7 12.1244 10.6145 0 -0.15523 0.987878
7.5 12.1244 10.6145 0 -0.15523 0.987878
8 12.1244 10.6145 0 -0.15523 0.987878
8.5 12.1244 10.6145 0 -0.15523 0.987878
9 12.1244 10.6145 0 -0.15523 0.987878
9.5 12.1244 10.6145 0 -0.15523 0.987878
10 12.1244 10.6145 0 -0.15523 0.987878
10.5 12.1244 10.6145 0 -0.15523 0.987878
11 12.1244 10.6145 0 -0.15523 0.987878
11.5 12.1244 10.6145 0 -0.15523 0.987878
12 12.1244 10.6145 0 -0.15523 0.987878
12.5 12.1244 10.6145 0 -0.15523 0.987878
13 12.1244 10.6145 0 -0.15523 0.987878
13.5 12.1244 10.6145 0.224544 -0.518563 0.825029
14 12.1244 10.6145 0.343841 -0.694808 0.631676
19 12.1244 10.6145 -0.568642 -0.437741 0.696441
19.5 12.1244 10.6145 0.8 0.34641 0.489898
0.75 12.5574 10.6145 -0.57735 0.666667 0.471405
1.25 12.5574 10.6145 0 -0.15523 0.987878
1.75 12.5574 10.6145 0.343841 -0.694808 0.631676
5.25 12.5574 10.6145 -0.343841 -0.694808 0.631676
5.75 12.5574 10.6145 -0.224544 -0.518563 0.825029
6.25 12.5574 10.6145 0 -0.15523 0.987878
6.75 12.5574 10.6145 0 -0.15523 0.987878
7.25 12.5574 10.6145 0 -0.15523 0.987878
7.75 12.5574 10.6145 0 -0.15523 0.987878
8.25 12.5574 10.6145 0.251312 0.29019 0.92338
8.75 12.5574 10.6145 0 0.617802 0.786334
9.25 12.5574 10.6145 0 0.617802 0.786334
9.75 12.5574 10.6145 0 0.617802 0.786334
10.25 12.5574 10.6145 0 0.617802 0.786334
10.75 12.5574 10.6145 0 0.617802 0.786334
11.25 12.5574 10.6145 0 0.617802 0.786334
11.75 12.5574 10.6145 -0.251312 0.29019 0.92338
12.25 12.5574 10.6145 0 -0.15523 0.987878
12.75 12.5574 10.6145 0 -0.15523 0.987878
13.25 12.5574 10.6145 0 -0.15523 0.987878
13.75 12.5574 10.6145 0 -0.15523 0.987878
14.25 12.5574 10.6145 0.224544 -0.518563 0.825029
14.75 12.5574 10.6145 0.343841 -0.694808 0.631676
18.25 12.5574 10.6145 -0.343841 -0.694808 0.631676
18.75 12.5574 10.6145 0 -0.15523 0.987878
19.25 12.5574 10.6145 0.57735 0.666667 0.471405
1.5 12.9904 10.6145 -0.61451 0.236525 0.752618
2 12.9904 10.6145 0.224544 -0.518563 0.825029
2.5 12.9904 10.6145 0 -0.739923 0.672692
3 12.9904 10.6145 0 -0.883452 0.468521
3.5 12.9904 10.6145 0 -0.883452 0.468521
4 12.9904 10.6145 0 -0.883452 0.468521
4.5 12.9904 10.6145 0 -0.739923 0.672692
5 12.9904 10.6145 -0.224544 -0.518563 0.825029
5.5 12.9904 10.6145 0 -0.15523 0.987878
6 12.9904 10.6145 0 -0.15523 0.987878
6.5 12.9904 10.6145 0 -0.15523 0.987878
7 12.9904 10.6145 0 -0.15523 0.987878
7.5 12.9904 10.6145 0.251312 0.29019 0.92338
8 12.9904 10.6145 0.393496 0.567962 0.722897
12 12.9904 10.6145 -0.393496 0.567962 0.722897
12.5 12.9904 10.6145 -0.251312 0.29019 0.92338
13 12.9904 10.6145 0 -0.15523 0.987878
13.5 12.9904 10.6145 0 -0.15523 0.987878
14 12.9904 10.6145 0 -0.15523 0.987878
14.5 12.9904 10.6145 0 -0.15523 0.987878
15 12.9904 10.6145 0.224544 -0.518563 0.825029
15.5 12.9904 10.6145 0 -0.739923 0.672692
16 12.9904 10.6145 0 -0.883452 0.468521
16.5 12.9904 10.6145 0 -0.883452 0.468521
17 12.9904 10.6145 0 -0.883452 0.468521
17.5 12.9904 10.6145 0 -0.739923 0.672692
18 12.9904 10.6145 -0.224544 -0.518563 0.825029
18.5 12.9904 10.6145 0.61451 0.236525 0.752618
1.75 13.4234 10.6145 -0.57735 0.666667 0.471405
2.25 13.4234 10.6145 0 0.617802 0.786334
2.75 13.4234 10.6145 -0.251312 0.29019 0.92338
3.25 13.4234 10.6145 0 -0.15523 0.987878
3.75 13.4234 10.6145 0 -0.15523 0.987878
4.25 13.4234 10.6145 0 -0.15523 0.987878
4.75 13.4234 10.6145 0 -0.15523 0.987878
5.25 13.4234 10.6145 0 -0.15523 0.987878
5.75 13.4234 10.6145 0.251312 0.29019 0.92338
6.25 13.4234 10.6145 0 0.617802 0.786334
6.75 13.4234 10.6145 0 0.617802 0.786334
7.25 13.4234 10.6145 0.57735 0.666667 0.471405
12.75 13.4234 10.6145 -0.57735 0.666667 0.471405
13.25 13.4234 10.6145 0 0.617802 0.786334
13.75 13.4234 10.6145 0 0.617802 0.786334
14.25 13.4234 10.6145 -0.251312 0.29019 0.92338
14.75 13.4234 10.6145 0 -0.15523 0.987878
15.25 13.4234 10.6145 0 -0.15523 0.987878
15.75 13.4234 10.6145 0 -0.15523 0.987878
16.25 13.4234 10.6145 0 -0.15523 0.987878
16.75 13.4234 10.6145 0 -0.15523 0.987878
17.25 13.4234 10.6145 0.251312 0.29019 0.92338
17.75 13.4234 10.6145 0 0.617802 0.786334
18.25 13.4234 10.6145 0.57735 0.666667 0.471405
3 13.8564 10.6145 -0.57735 0.666667 0.471405
3.5 13.8564 10.6145 0 0.617802 0.786334
4 13.8564 10.6145 0 0.617802 0.786334
4.5 13.8564 10.6145 0 0.617802 0.786334
5 13.8564 10.6145 0 0.617802 0.786334
5.5 13.8564 10.6145 0.393496 0.567962 0.722897
14.5 13.8564 10.6145 -0.393496 0.567962 0.722897
15 13.8564 10.6145 0 0.617802 0.786334
15.5 13.8564 10.6145 0 0.617802 0.786334
16 13.8564 10.6145 0 0.617802 0.786334
16.5 13.8564 10.6145 0 0.617802 0.786334
17 13.8564 10.6145 0.57735 0.666667 0.471405
