ply
format ascii 1.0
comment exported from virtual worlds 
comment Voxel surface data
element vertex 468
property float x
property float y
property float z
element face 851
property list uchar int vertex_index
end_header
-10 -10 0.565678
-9 -10 0.461044
-8 -10 0.148417
-7 -10 -0.230762
-6 -10 -0.539257
-5 -10 -0.703363
-4 -10 -0.724018
-3 -10 -0.651137
-2 -10 -0.547927
-1 -10 -0.465817
0 -10 -0.435217
1 -10 -0.465817
2 -10 -0.547927
3 -10 -0.651137
4 -10 -0.724018
5 -10 -0.703363
6 -10 -0.539257
7 -10 -0.230762
8 -10 0.148417
9 -10 0.461044
-9.5 -9.13398 0.348936
-8.5 -9.13398 -0.057124
-7.5 -9.13398 -0.460291
-6.5 -9.13398 -0.697158
-5.5 -9.13398 -0.708979
-4.5 -9.13398 -0.539863
-3.5 -9.13398 -0.28567
-2.5 -9.13398 -0.0381266
-1.5 -9.13398 0.144905
-0.5 -9.13398 0.23927
0.5 -9.13398 0.23927
1.5 -9.13398 0.144905
2.5 -9.13398 -0.0381266
3.5 -9.13398 -0.28567
4.5 -9.13398 -0.539863
5.5 -9.13398 -0.708979
6.5 -9.13398 -0.697158
7.5 -9.13398 -0.460291
8.5 -9.13398 -0.057124
-10 -8.26795 0.245171
-9 -8.26795 -0.221456
-8 -8.26795 -0.607161
-7 -8.26795 -0.728759
-6 -8.26795 -0.556754
-5 -8.26795 -0.194771
-4 -8.26795 0.207096
-3 -8.26795 0.535412
-2 -8.26795 0.747307
-1 -8.26795 0.854588
0 -8.26795 0.885862
1 -8.26795 0.854588
2 -8.26795 0.747307
3 -8.26795 0.535412
4 -8.26795 0.207096
5 -8.26795 -0.194771
6 -8.26795 -0.556754
7 -8.26795 -0.728759
8 -8.26795 -0.607161
9 -8.26795 -0.221456
-9.5 -7.40192 -0.331896
-8.5 -7.40192 -0.683
-7.5 -7.40192 -0.680919
-6.5 -7.40192 -0.335616
-5.5 -7.40192 0.175026
-4.5 -7.40192 0.637775
-3.5 -7.40192 0.92317
-2.5 -7.40192 1.0231
-1.5 -7.40192 1.01146
-0.5 -7.40192 0.97783
0.5 -7.40192 0.97783
1.5 -7.40192 1.01146
2.5 -7.40192 1.0231
3.5 -7.40192 0.92317
4.5 -7.40192 0.637775
5.5 -7.40192 0.175026
6.5 -7.40192 -0.335616
7.5 -7.40192 -0.680919
8.5 -7.40192 -0.683
-10 -6.5359 -0.389043
-9 -6.5359 -0.713421
-8 -6.5359 -0.609332
-7 -6.5359 -0.126625
-6 -6.5359 0.47319
-5 -6.5359 0.904563
-4 -6.5359 1.02498
-3 -6.5359 0.877123
-2 -6.5359 0.613636
-1 -6.5359 0.390662
0 -6.5359 0.306041
1 -6.5359 0.390662
2 -6.5359 0.613636
3 -6.5359 0.877123
4 -6.5359 1.02498
5 -6.5359 0.904563
6 -6.5359 0.47319
7 -6.5359 -0.126625
8 -6.5359 -0.609332
9 -6.5359 -0.713421
-9.5 -5.66987 -0.721449
-8.5 -5.66987 -0.557687
-7.5 -5.66987 0.0193869
-6.5 -5.66987 0.664944
-5.5 -5.66987 1.01172
-4.5 -5.66987 0.902448
-3.5 -5.66987 0.445291
-2.5 -5.66987 -0.111686
-1.5 -5.66987 -0.554021
-0.5 -5.66987 -0.783499
0.5 -5.66987 -0.783499
1.5 -5.66987 -0.554021
2.5 -5.66987 -0.111686
3.5 -5.66987 0.445291
4.5 -5.66987 0.902448
5.5 -5.66987 1.01172
6.5 -5.66987 0.664944
7.5 -5.66987 0.0193869
8.5 -5.66987 -0.557687
-10 -4.80385 -0.71762
-9 -4.80385 -0.549837
-8 -4.80385 0.07985
-7 -4.80385 0.758158
-6 -4.80385 1.02621
-5 -4.80385 0.698772
-4 -4.80385 -0.0409833
-3 -4.80385 -0.820185
-2 -4.80385 -1.35567
-1 -4.80385 -1.59966
0 -4.80385 -1.65837
1 -4.80385 -1.59966
2 -4.80385 -1.35567
3 -4.80385 -0.820185
4 -4.80385 -0.0409833
5 -4.80385 0.698772
6 -4.80385 1.02621
7 -4.80385 0.758158
8 -4.80385 0.07985
9 -4.80385 -0.549837
-9.5 -3.93782 -0.589044
-8.5 -3.93782 0.0485975
-7.5 -3.93782 0.770311
-6.5 -3.93782 1.01883
-5.5 -3.93782 0.547355
-4.5 -3.93782 -0.399858
-3.5 -3.93782 -1.28971
-2.5 -3.93782 -1.71315
-1.5 -3.93782 -1.66741
-0.5 -3.93782 -1.48429
0.5 -3.93782 -1.48429
1.5 -3.93782 -1.66741
2.5 -3.93782 -1.71315
3.5 -3.93782 -1.28971
4.5 -3.93782 -0.399858
5.5 -3.93782 0.547355
6.5 -3.93782 1.01883
7.5 -3.93782 0.770311
8.5 -3.93782 0.0485975
-10 -3.0718 -0.658106
-9 -3.0718 -0.0714213
-8 -3.0718 0.704611
-7 -3.0718 1.02361
-6 -3.0718 0.524161
-5 -3.0718 -0.549624
-4 -3.0718 -1.50012
-3 -3.0718 -1.70226
-2 -3.0718 -1.09185
-1 -3.0718 -0.219807
0 -3.0718 0.181624
1 -3.0718 -0.219807
2 -3.0718 -1.09185
3 -3.0718 -1.70226
4 -3.0718 -1.50012
5 -3.0718 -0.549624
6 -3.0718 0.524161
7 -3.0718 1.02361
8 -3.0718 0.704611
9 -3.0718 -0.0714213
-9.5 -2.20577 -0.264204
-8.5 -2.20577 0.54641
-7.5 -2.20577 1.02265
-6.5 -2.20577 0.639576
-5.5 -2.20577 -0.472239
-4.5 -2.20577 -1.52543
-3.5 -2.20577 -1.62245
-2.5 -2.20577 -0.458799
-1.5 -2.20577 1.36924
-0.5 -2.20577 2.72588
0.5 -2.20577 2.72588
1.5 -2.20577 1.36924
2.5 -2.20577 -0.458799
3.5 -2.20577 -1.62245
4.5 -2.20577 -1.52543
5.5 -2.20577 -0.472239
6.5 -2.20577 0.639576
7.5 -2.20577 1.02265
8.5 -2.20577 0.54641
-10 -1.33975 -0.489006
-9 -1.33975 0.281242
-8 -1.33975 0.953767
-7 -1.33975 0.838742
-6 -1.33975 -0.175692
-5 -1.33975 -1.38208
-4 -1.33975 -1.66973
-3 -1.33975 -0.349341
-2 -1.33975 2.22689
-1 -1.33975 4.76087
0 -1.33975 5.8126
1 -1.33975 4.76087
2 -1.33975 2.22689
3 -1.33975 -0.349341
4 -1.33975 -1.66973
5 -1.33975 -1.38208
6 -1.33975 -0.175692
7 -1.33975 0.838742
8 -1.33975 0.953767
9 -1.33975 0.281242
-9.5 -0.473722 -0.0731011
-8.5 -0.473722 0.742826
-7.5 -0.473722 1.00395
-6.5 -0.473722 0.284688
-5.5 -0.473722 -1.00133
-4.5 -0.473722 -1.73701
-3.5 -0.473722 -0.861821
-2.5 -0.473722 1.76775
-1.5 -0.473722 5.08573
-0.5 -0.473722 7.38229
0.5 -0.473722 7.38229
1.5 -0.473722 5.08573
2.5 -0.473722 1.76775
3.5 -0.473722 -0.861821
4.5 -0.473722 -1.73701
5.5 -0.473722 -1.00133
6.5 -0.473722 0.284688
7.5 -0.473722 1.00395
8.5 -0.473722 0.742826
-10 0.392304 -0.440029
-9 0.392304 0.359052
-8 0.392304 0.986728
-7 0.392304 0.759069
-6 0.392304 -0.355363
-5 0.392304 -1.52244
-4 0.392304 -1.53107
-3 0.392304 0.306168
-2 0.392304 3.50434
-1 0.392304 6.54783
0 0.392304 7.79637
1 0.392304 6.54783
2 0.392304 3.50434
3 0.392304 0.306168
4 0.392304 -1.53107
5 0.392304 -1.52244
6 0.392304 -0.355363
7 0.392304 0.759069
8 0.392304 0.986728
9 0.392304 0.359052
-9.5 1.25833 -0.131514
-8.5 1.25833 0.68838
-7.5 1.25833 1.01948
-6.5 1.25833 0.400108
-5.5 1.25833 -0.847993
-4.5 1.25833 -1.71075
-3.5 1.25833 -1.17468
-2.5 1.25833 0.960689
-1.5 1.25833 3.78365
-0.5 1.25833 5.77003
0.5 1.25833 5.77003
1.5 1.25833 3.78365
2.5 1.25833 0.960689
3.5 1.25833 -1.17468
4.5 1.25833 -1.71075
5.5 1.25833 -0.847993
6.5 1.25833 0.400108
7.5 1.25833 1.01948
8.5 1.25833 0.68838
-10 2.12436 -0.560472
-9 2.12436 0.15272
-8 2.12436 0.881211
-7 2.12436 0.938707
-6 2.12436 0.102683
-5 2.12436 -1.10693
-4 2.12436 -1.73677
-3 2.12436 -1.10843
-2 2.12436 0.608815
-1 2.12436 2.42904
0 2.12436 3.20345
1 2.12436 2.42904
2 2.12436 0.608815
3 2.12436 -1.10843
4 2.12436 -1.73677
5 2.12436 -1.10693
6 2.12436 0.102683
7 2.12436 0.938707
8 2.12436 0.881211
9 2.12436 0.15272
-9.5 2.99038 -0.409363
-8.5 2.99038 0.357232
-7.5 2.99038 0.966889
-6.5 2.99038 0.855833
-5.5 2.99038 -0.0291379
-4.5 2.99038 -1.14138
-3.5 2.99038 -1.72751
-2.5 2.99038 -1.40825
-1.5 2.99038 -0.484229
-0.5 2.99038 0.288873
0.5 2.99038 0.288873
1.5 2.99038 -0.484229
2.5 2.99038 -1.40825
3.5 2.99038 -1.72751
4.5 2.99038 -1.14138
5.5 2.99038 -0.0291379
6.5 2.99038 0.855833
7.5 2.99038 0.966889
8.5 2.99038 0.357232
-10 3.85641 -0.717814
-9 3.85641 -0.292893
-8 3.85641 0.466063
-7 3.85641 0.991485
-6 3.85641 0.842118
-5 3.85641 0.0395624
-4 3.85641 -0.956885
-3 3.85641 -1.61279
-2 3.85641 -1.71811
-1 3.85641 -1.49844
0 3.85641 -1.35977
1 3.85641 -1.49844
2 3.85641 -1.71811
3 3.85641 -1.61279
4 3.85641 -0.956885
5 3.85641 0.0395624
6 3.85641 0.842118
7 3.85641 0.991485
8 3.85641 0.466063
9 3.85641 -0.292893
-9.5 4.72243 -0.698435
-8.5 4.72243 -0.242326
-7.5 4.72243 0.480889
-6.5 4.72243 0.979561
-5.5 4.72243 0.907841
-4.5 4.72243 0.291464
-3.5 4.72243 -0.536441
-2.5 4.72243 -1.20892
-1.5 4.72243 -1.5673
-0.5 4.72243 -1.68351
0.5 4.72243 -1.68351
1.5 4.72243 -1.5673
2.5 4.72243 -1.20892
3.5 4.72243 -0.536441
4.5 4.72243 0.291464
5.5 4.72243 0.907841
6.5 4.72243 0.979561
7.5 4.72243 0.480889
8.5 4.72243 -0.242326
-10 5.58846 -0.625748
-9 5.58846 -0.695049
-8 5.58846 -0.26863
-7 5.58846 0.402587
-6 5.58846 0.918033
-5 5.58846 1.00023
-4 5.58846 0.646948
-3 5.58846 0.0751193
-2 5.58846 -0.459156
-1 5.58846 -0.802582
0 5.58846 -0.916427
1 5.58846 -0.802582
2 5.58846 -0.459156
3 5.58846 0.0751193
4 5.58846 0.646948
5 5.58846 1.00023
6 5.58846 0.918033
7 5.58846 0.402587
8 5.58846 -0.26863
9 5.58846 -0.695049
-9.5 6.45448 -0.614701
-8.5 6.45448 -0.710874
-7.5 6.45448 -0.36629
-6.5 6.45448 0.22833
-5.5 6.45448 0.764499
-4.5 6.45448 1.01663
-3.5 6.45448 0.950053
-2.5 6.45448 0.688877
-1.5 6.45448 0.406368
-0.5 6.45448 0.234152
0.5 6.45448 0.234152
1.5 6.45448 0.406368
2.5 6.45448 0.688877
3.5 6.45448 0.950053
4.5 6.45448 1.01663
5.5 6.45448 0.764499
6.5 6.45448 0.22833
7.5 6.45448 -0.36629
8.5 6.45448 -0.710874
-10 7.32051 -0.111268
-9 7.32051 -0.566901
-8 7.32051 -0.729272
-7 7.32051 -0.511171
-6 7.32051 -0.0341466
-5 7.32051 0.479112
-4 7.32051 0.847024
-3 7.32051 1.00954
-2 7.32051 1.01734
-1 7.32051 0.967561
0 7.32051 0.940968
1 7.32051 0.967561
2 7.32051 1.01734
3 7.32051 1.00954
4 7.32051 0.847024
5 7.32051 0.479112
6 7.32051 -0.0341466
7 7.32051 -0.511171
8 7.32051 -0.729272
9 7.32051 -0.566901
-9.5 8.18653 -0.0163701
-8.5 8.18653 -0.46953
-7.5 8.18653 -0.716419
-6.5 8.18653 -0.655481
-5.5 8.18653 -0.343844
-4.5 8.18653 0.0709744
-3.5 8.18653 0.447594
-2.5 8.18653 0.711342
-1.5 8.18653 0.857492
-0.5 8.18653 0.916993
0.5 8.18653 0.916993
1.5 8.18653 0.857492
2.5 8.18653 0.711342
3.5 8.18653 0.447594
4.5 8.18653 0.0709744
5.5 8.18653 -0.343844
6.5 8.18653 -0.655481
7.5 8.18653 -0.716419
8.5 8.18653 -0.46953
-10 9.05256 0.472743
-9 9.05256 0.123751
-8 9.05256 -0.308983
-7 9.05256 -0.630196
-6 9.05256 -0.729902
-5 9.05256 -0.613967
-4 9.05256 -0.367618
-3 9.05256 -0.0936983
-2 9.05256 0.132296
-1 9.05256 0.273937
0 9.05256 0.321398
1 9.05256 0.273937
2 9.05256 0.132296
3 9.05256 -0.0936983
4 9.05256 -0.367618
5 9.05256 -0.613967
6 9.05256 -0.729902
7 9.05256 -0.630196
8 9.05256 -0.308983
9 9.05256 0.123751
-9.5 9.91858 0.535831
-8.5 9.91858 0.291525
-7.5 9.91858 -0.0842978
-6.5 9.91858 -0.438551
-5.5 9.91858 -0.663606
-4.5 9.91858 -0.730545
-3.5 9.91858 -0.675499
-2.5 9.91858 -0.563234
-1.5 9.91858 -0.454628
-0.5 9.91858 -0.390715
0.5 9.91858 -0.390715
1.5 9.91858 -0.454628
2.5 9.91858 -0.563234
3.5 9.91858 -0.675499
4.5 9.91858 -0.730545
5.5 9.91858 -0.663606
6.5 9.91858 -0.438551
7.5 9.91858 -0.0842978
8.5 9.91858 0.291525
3 1 20 0
3 1 21 20
3 2 21 1
3 2 22 21
3 3 22 2
3 3 23 22
3 4 23 3
3 4 24 23
3 5 24 4
3 5 25 24
3 6 25 5
3 6 26 25
3 7 26 6
3 7 27 26
3 8 27 7
3 8 28 27
3 9 28 8
3 9 29 28
3 10 29 9
3 10 30 29
3 11 30 10
3 11 31 30
3 12 31 11
3 12 32 31
3 13 32 12
3 13 33 32
3 14 33 13
3 14 34 33
3 15 34 14
3 15 35 34
3 16 35 15
3 16 36 35
3 17 36 16
3 17 37 36
3 18 37 17
3 18 38 37
3 19 38 18
3 20 40 39
3 21 40 20
3 21 41 40
3 22 41 21
3 22 42 41
3 23 42 22
3 23 43 42
3 24 43 23
3 24 44 43
3 25 44 24
3 25 45 44
3 26 45 25
3 26 46 45
3 27 46 26
3 27 47 46
3 28 47 27
3 28 48 47
3 29 48 28
3 29 49 48
3 30 49 29
3 30 50 49
3 31 50 30
3 31 51 50
3 32 51 31
3 32 52 51
3 33 52 32
3 33 53 52
3 34 53 33
3 34 54 53
3 35 54 34
3 35 55 54
3 36 55 35
3 36 56 55
3 37 56 36
3 37 57 56
3 38 57 37
3 38 58 57
3 40 59 39
3 40 60 59
3 41 60 40
3 41 61 60
3 42 61 41
3 42 62 61
3 43 62 42
3 43 63 62
3 44 63 43
3 44 64 63
3 45 64 44
3 45 65 64
3 46 65 45
3 46 66 65
3 47 66 46
3 47 67 66
3 48 67 47
3 48 68 67
3 49 68 48
3 49 69 68
3 50 69 49
3 50 70 69
3 51 70 50
3 51 71 70
3 52 71 51
3 52 72 71
3 53 72 52
3 53 73 72
3 54 73 53
3 54 74 73
3 55 74 54
3 55 75 74
3 56 75 55
3 56 76 75
3 57 76 56
3 57 77 76
3 58 77 57
3 59 79 78
3 60 79 59
3 60 80 79
3 61 80 60
3 61 81 80
3 62 81 61
3 62 82 81
3 63 82 62
3 63 83 82
3 64 83 63
3 64 84 83
3 65 84 64
3 65 85 84
3 66 85 65
3 66 86 85
3 67 86 66
3 67 87 86
3 68 87 67
3 68 88 87
3 69 88 68
3 69 89 88
3 70 89 69
3 70 90 89
3 71 90 70
3 71 91 90
3 72 91 71
3 72 92 91
3 73 92 72
3 73 93 92
3 74 93 73
3 74 94 93
3 75 94 74
3 75 95 94
3 76 95 75
3 76 96 95
3 77 96 76
3 77 97 96
3 79 98 78
3 79 99 98
3 80 99 79
3 80 100 99
3 81 100 80
3 81 101 100
3 82 101 81
3 82 102 101
3 83 102 82
3 83 103 102
3 84 103 83
3 84 104 103
3 85 104 84
3 85 105 104
3 86 105 85
3 86 106 105
3 87 106 86
3 87 107 106
3 88 107 87
3 88 108 107
3 89 108 88
3 89 109 108
3 90 109 89
3 90 110 109
3 91 110 90
3 91 111 110
3 92 111 91
3 92 112 111
3 93 112 92
3 93 113 112
3 94 113 93
3 94 114 113
3 95 114 94
3 95 115 114
3 96 115 95
3 96 116 115
3 97 116 96
3 98 118 117
3 99 118 98
3 99 119 118
3 100 119 99
3 100 120 119
3 101 120 100
3 101 121 120
3 102 121 101
3 102 122 121
3 103 122 102
3 103 123 122
3 104 123 103
3 104 124 123
3 105 124 104
3 105 125 124
3 106 125 105
3 106 126 125
3 107 126 106
3 107 127 126
3 108 127 107
3 108 128 127
3 109 128 108
3 109 129 128
3 110 129 109
3 110 130 129
3 111 130 110
3 111 131 130
3 112 131 111
3 112 132 131
3 113 132 112
3 113 133 132
3 114 133 113
3 114 134 133
3 115 134 114
3 115 135 134
3 116 135 115
3 116 136 135
3 118 137 117
3 118 138 137
3 119 138 118
3 119 139 138
3 120 139 119
3 120 140 139
3 121 140 120
3 121 141 140
3 122 141 121
3 122 142 141
3 123 142 122
3 123 143 142
3 124 143 123
3 124 144 143
3 125 144 124
3 125 145 144
3 126 145 125
3 126 146 145
3 127 146 126
3 127 147 146
3 128 147 127
3 128 148 147
3 129 148 128
3 129 149 148
3 130 149 129
3 130 150 149
3 131 150 130
3 131 151 150
3 132 151 131
3 132 152 151
3 133 152 132
3 133 153 152
3 134 153 133
3 134 154 153
3 135 154 134
3 135 155 154
3 136 155 135
3 137 157 156
3 138 157 137
3 138 158 157
3 139 158 138
3 139 159 158
3 140 159 139
3 140 160 159
3 141 160 140
3 141 161 160
3 142 161 141
3 142 162 161
3 143 162 142
3 143 163 162
3 144 163 143
3 144 164 163
3 145 164 144
3 145 165 164
3 146 165 145
3 146 166 165
3 147 166 146
3 147 167 166
3 148 167 147
3 148 168 167
3 149 168 148
3 149 169 168
3 150 169 149
3 150 170 169
3 151 170 150
3 151 171 170
3 152 171 151
3 152 172 171
3 153 172 152
3 153 173 172
3 154 173 153
3 154 174 173
3 155 174 154
3 155 175 174
3 157 176 156
3 157 177 176
3 158 177 157
3 158 178 177
3 159 178 158
3 159 179 178
3 160 179 159
3 160 180 179
3 161 180 160
3 161 181 180
3 162 181 161
3 162 182 181
3 163 182 162
3 163 183 182
3 164 183 163
3 164 184 183
3 165 184 164
3 165 185 184
3 166 185 165
3 166 186 185
3 167 186 166
3 167 187 186
3 168 187 167
3 168 188 187
3 169 188 168
3 169 189 188
3 170 189 169
3 170 190 189
3 171 190 170
3 171 191 190
3 172 191 171
3 172 192 191
3 173 192 172
3 173 193 192
3 174 193 173
3 174 194 193
3 175 194 174
3 176 196 195
3 177 196 176
3 177 197 196
3 178 197 177
3 178 198 197
3 179 198 178
3 179 199 198
3 180 199 179
3 180 200 199
3 181 200 180
3 181 201 200
3 182 201 181
3 182 202 201
3 183 202 182
3 183 203 202
3 184 203 183
3 184 204 203
3 185 204 184
3 185 205 204
3 186 205 185
3 186 206 205
3 187 206 186
3 187 207 206
3 188 207 187
3 188 208 207
3 189 208 188
3 189 209 208
3 190 209 189
3 190 210 209
3 191 210 190
3 191 211 210
3 192 211 191
3 192 212 211
3 193 212 192
3 193 213 212
3 194 213 193
3 194 214 213
3 196 215 195
3 196 216 215
3 197 216 196
3 197 217 216
3 198 217 197
3 198 218 217
3 199 218 198
3 199 219 218
3 200 219 199
3 200 220 219
3 201 220 200
3 201 221 220
3 202 221 201
3 202 222 221
3 203 222 202
3 203 223 222
3 204 223 203
3 204 224 223
3 205 224 204
3 205 225 224
3 206 225 205
3 206 226 225
3 207 226 206
3 207 227 226
3 208 227 207
3 208 228 227
3 209 228 208
3 209 229 228
3 210 229 209
3 210 230 229
3 211 230 210
3 211 231 230
3 212 231 211
3 212 232 231
3 213 232 212
3 213 233 232
3 214 233 213
3 215 235 234
3 216 235 215
3 216 236 235
3 217 236 216
3 217 237 236
3 218 237 217
3 218 238 237
3 219 238 218
3 219 239 238
3 220 239 219
3 220 240 239
3 221 240 220
3 221 241 240
3 222 241 221
3 222 242 241
3 223 242 222
3 223 243 242
3 224 243 223
3 224 244 243
3 225 244 224
3 225 245 244
3 226 245 225
3 226 246 245
3 227 246 226
3 227 247 246
3 228 247 227
3 228 248 247
3 229 248 228
3 229 249 248
3 230 249 229
3 230 250 249
3 231 250 230
3 231 251 250
3 232 251 231
3 232 252 251
3 233 252 232
3 233 253 252
3 235 254 234
3 235 255 254
3 236 255 235
3 236 256 255
3 237 256 236
3 237 257 256
3 238 257 237
3 238 258 257
3 239 258 238
3 239 259 258
3 240 259 239
3 240 260 259
3 241 260 240
3 241 261 260
3 242 261 241
3 242 262 261
3 243 262 242
3 243 263 262
3 244 263 243
3 244 264 263
3 245 264 244
3 245 265 264
3 246 265 245
3 246 266 265
3 247 266 246
3 247 267 266
3 248 267 247
3 248 268 267
3 249 268 248
3 249 269 268
3 250 269 249
3 250 270 269
3 251 270 250
3 251 271 270
3 252 271 251
3 252 272 271
3 253 272 252
3 254 274 273
3 255 274 254
3 255 275 274
3 256 275 255
3 256 276 275
3 257 276 256
3 257 277 276
3 258 277 257
3 258 278 277
3 259 278 258
3 259 279 278
3 260 279 259
3 260 280 279
3 261 280 260
3 261 281 280
3 262 281 261
3 262 282 281
3 263 282 262
3 263 283 282
3 264 283 263
3 264 284 283
3 265 284 264
3 265 285 284
3 266 285 265
3 266 286 285
3 267 286 266
3 267 287 286
3 268 287 267
3 268 288 287
3 269 288 268
3 269 289 288
3 270 289 269
3 270 290 289
3 271 290 270
3 271 291 290
3 272 291 271
3 272 292 291
3 274 293 273
3 274 294 293
3 275 294 274
3 275 295 294
3 276 295 275
3 276 296 295
3 277 296 276
3 277 297 296
3 278 297 277
3 278 298 297
3 279 298 278
3 279 299 298
3 280 299 279
3 280 300 299
3 281 300 280
3 281 301 300
3 282 301 281
3 282 302 301
3 283 302 282
3 283 303 302
3 284 303 283
3 284 304 303
3 285 304 284
3 285 305 304
3 286 305 285
3 286 306 305
3 287 306 286
3 287 307 306
3 288 307 287
3 288 308 307
3 289 308 288
3 289 309 308
3 290 309 289
3 290 310 309
3 291 310 290
3 291 311 310
3 292 311 291
3 293 313 312
3 294 313 293
3 294 314 313
3 295 314 294
3 295 315 314
3 296 315 295
3 296 316 315
3 297 316 296
3 297 317 316
3 298 317 297
3 298 318 317
3 299 318 298
3 299 319 318
3 300 319 299
3 300 320 319
3 301 320 300
3 301 321 320
3 302 321 301
3 302 322 321
3 303 322 302
3 303 323 322
3 304 323 303
3 304 324 323
3 305 324 304
3 305 325 324
3 306 325 305
3 306 326 325
3 307 326 306
3 307 327 326
3 308 327 307
3 308 328 327
3 309 328 308
3 309 329 328
3 310 329 309
3 310 330 329
3 311 330 310
3 311 331 330
3 313 332 312
3 313 333 332
3 314 333 313
3 314 334 333
3 315 334 314
3 315 335 334
3 316 335 315
3 316 336 335
3 317 336 316
3 317 337 336
3 318 337 317
3 318 338 337
3 319 338 318
3 319 339 338
3 320 339 319
3 320 340 339
3 321 340 320
3 321 341 340
3 322 341 321
3 322 342 341
3 323 342 322
3 323 343 342
3 324 343 323
3 324 344 343
3 325 344 324
3 325 345 344
3 326 345 325
3 326 346 345
3 327 346 326
3 327 347 346
3 328 347 327
3 328 348 347
3 329 348 328
3 329 349 348
3 330 349 329
3 330 350 349
3 331 350 330
3 332 352 351
3 333 352 332
3 333 353 352
3 334 353 333
3 334 354 353
3 335 354 334
3 335 355 354
3 336 355 335
3 336 356 355
3 337 356 336
3 337 357 356
3 338 357 337
3 338 358 357
3 339 358 338
3 339 359 358
3 340 359 339
3 340 360 359
3 341 360 340
3 341 361 360
3 342 361 341
3 342 362 361
3 343 362 342
3 343 363 362
3 344 363 343
3 344 364 363
3 345 364 344
3 345 365 364
3 346 365 345
3 346 366 365
3 347 366 346
3 347 367 366
3 348 367 347
3 348 368 367
3 349 368 348
3 349 369 368
3 350 369 349
3 350 370 369
3 352 371 351
3 352 372 371
3 353 372 352
3 353 373 372
3 354 373 353
3 354 374 373
3 355 374 354
3 355 375 374
3 356 375 355
3 356 376 375
3 357 376 356
3 357 377 376
3 358 377 357
3 358 378 377
3 359 378 358
3 359 379 378
3 360 379 359
3 360 380 379
3 361 380 360
3 361 381 380
3 362 381 361
3 362 382 381
3 363 382 362
3 363 383 382
3 364 383 363
3 364 384 383
3 365 384 364
3 365 385 384
3 366 385 365
3 366 386 385
3 367 386 366
3 367 387 386
3 368 387 367
3 368 388 387
3 369 388 368
3 369 389 388
3 370 389 369
3 371 391 390
3 372 391 371
3 372 392 391
3 373 392 372
3 373 393 392
3 374 393 373
3 374 394 393
3 375 394 374
3 375 395 394
3 376 395 375
3 376 396 395
3 377 396 376
3 377 397 396
3 378 397 377
3 378 398 397
3 379 398 378
3 379 399 398
3 380 399 379
3 380 400 399
3 381 400 380
3 381 401 400
3 382 401 381
3 382 402 401
3 383 402 382
3 383 403 402
3 384 403 383
3 384 404 403
3 385 404 384
3 385 405 404
3 386 405 385
3 386 406 405
3 387 406 386
3 387 407 406
3 388 407 387
3 388 408 407
3 389 408 388
3 389 409 408
3 391 410 390
3 391 411 410
3 392 411 391
3 392 412 411
3 393 412 392
3 393 413 412
3 394 413 393
3 394 414 413
3 395 414 394
3 395 415 414
3 396 415 395
3 396 416 415
3 397 416 396
3 397 417 416
3 398 417 397
3 398 418 417
3 399 418 398
3 399 419 418
3 400 419 399
3 400 420 419
3 401 420 400
3 401 421 420
3 402 421 401
3 402 422 421
3 403 422 402
3 403 423 422
3 404 423 403
3 404 424 423
3 405 424 404
3 405 425 424
3 406 425 405
3 406 426 425
3 407 426 406
3 407 427 426
3 408 427 407
3 408 428 427
3 409 428 408
3 410 430 429
3 411 430 410
3 411 431 430
3 412 431 411
3 412 432 431
3 413 432 412
3 413 433 432
3 414 433 413
3 414 434 433
3 415 434 414
3 415 435 434
3 416 435 415
3 416 436 435
3 417 436 416
3 417 437 436
3 418 437 417
3 418 438 437
3 419 438 418
3 419 439 438
3 420 439 419
3 420 440 439
3 421 440 420
3 421 441 440
3 422 441 421
3 422 442 441
3 423 442 422
3 423 443 442
3 424 443 423
3 424 444 443
3 425 444 424
3 425 445 444
3 426 445 425
3 426 446 445
3 427 446 426
3 427 447 446
3 428 447 427
3 428 448 447
3 430 449 429
3 430 450 449
3 431 450 430
3 431 451 450
3 432 451 431
3 432 452 451
3 433 452 432
3 433 453 452
3 434 453 433
3 434 454 453
3 435 454 434
3 435 455 454
3 436 455 435
3 436 456 455
3 437 456 436
3 437 457 456
3 438 457 437
3 438 458 457
3 439 458 438
3 439 459 458
3 440 459 439
3 440 460 459
3 441 460 440
3 441 461 460
3 442 461 441
3 442 462 461
3 443 462 442
3 443 463 462
3 444 463 443
3 444 464 463
3 445 464 444
3 445 465 464
3 446 465 445
3 446 466 465
3 447 466 446
3 447 467 466
3 448 467 447
