ply
format ascii 1.0
comment exported from virtual worlds 
comment Voxel surface data
element vertex 2044
property float x
property float y
property float z
end_header
4.2 0.34641 0
4.6 0.34641 0
5 0.34641 0
2.4 0.69282 0
4 0.69282 0
4.4 0.69282 0
4.8 0.69282 0
5.2 0.69282 0
5.6 0.69282 0
6 0.69282 0
2.2 1.03923 0
2.6 1.03923 0
3 1.03923 0
3.4 1.03923 0
3.8 1.03923 0
4.2 1.03923 0
4.6 1.03923 0
5 1.03923 0
5.4 1.03923 0
5.8 1.03923 0
6.2 1.03923 0
6.6 1.03923 0
7 1.03923 0
7.4 1.03923 0
2 1.38564 0
2.4 1.38564 0
2.8 1.38564 0
3.2 1.38564 0
3.6 1.38564 0
4 1.38564 0
4.4 1.38564 0
4.8 1.38564 0
5.2 1.38564 0
5.6 1.38564 0
6 1.38564 0
6.4 1.38564 0
6.8 1.38564 0
7.2 1.38564 0
7.6 1.38564 0
1.8 1.73205 0
2.2 1.73205 0
2.6 1.73205 0
3 1.73205 0
3.4 1.73205 0
3.8 1.73205 0
4.2 1.73205 0
4.6 1.73205 0
5 1.73205 0
5.4 1.73205 0
5.8 1.73205 0
6.2 1.73205 0
6.6 1.73205 0
7 1.73205 0
7.4 1.73205 0
7.8 1.73205 0
2 2.07846 0
2.4 2.07846 0
2.8 2.07846 0
3.2 2.07846 0
3.6 2.07846 0
4 2.07846 0
4.4 2.07846 0
4.8 2.07846 0
5.2 2.07846 0
5.6 2.07846 0
6 2.07846 0
6.4 2.07846 0
6.8 2.07846 0
7.2 2.07846 0
7.6 2.07846 0
8 2.07846 0
8.4 2.07846 0
1.8 2.42487 0
2.2 2.42487 0
2.6 2.42487 0
3.8 2.42487 0
4.2 2.42487 0
4.6 2.42487 0
5 2.42487 0
5.4 2.42487 0
5.8 2.42487 0
6.2 2.42487 0
6.6 2.42487 0
7 2.42487 0
7.4 2.42487 0
7.8 2.42487 0
8.2 2.42487 0
8.6 2.42487 0
2 2.77128 0
2.4 2.77128 0
2.8 2.77128 0
3.6 2.77128 0
4 2.77128 0
4.4 2.77128 0
4.8 2.77128 0
5.2 2.77128 0
5.6 2.77128 0
6 2.77128 0
6.4 2.77128 0
6.8 2.77128 0
7.2 2.77128 0
7.6 2.77128 0
8 2.77128 0
8.4 2.77128 0
8.8 2.77128 0
1.4 3.11769 0
1.8 3.11769 0
2.2 3.11769 0
2.6 3.11769 0
3 3.11769 0
3.4 3.11769 0
3.8 3.11769 0
4.2 3.11769 0
4.6 3.11769 0
5 3.11769 0
5.4 3.11769 0
5.8 3.11769 0
6.2 3.11769 0
7.4 3.11769 0
7.8 3.11769 0
8.2 3.11769 0
8.6 3.11769 0
1.6 3.4641 0
2 3.4641 0
2.4 3.4641 0
2.8 3.4641 0
3.2 3.4641 0
3.6 3.4641 0
4 3.4641 0
4.4 3.4641 0
4.8 3.4641 0
5.2 3.4641 0
5.6 3.4641 0
6 3.4641 0
6.4 3.4641 0
6.8 3.4641 0
7.2 3.4641 0
7.6 3.4641 0
8 3.4641 0
8.4 3.4641 0
8.8 3.4641 0
1.4 3.81051 0
1.8 3.81051 0
2.2 3.81051 0
2.6 3.81051 0
3 3.81051 0
3.4 3.81051 0
3.8 3.81051 0
4.2 3.81051 0
4.6 3.81051 0
5 3.81051 0
5.4 3.81051 0
5.8 3.81051 0
6.2 3.81051 0
6.6 3.81051 0
7 3.81051 0
7.4 3.81051 0
7.8 3.81051 0
8.2 3.81051 0
8.6 3.81051 0
1.6 4.15692 0
2 4.15692 0
2.4 4.15692 0
2.8 4.15692 0
3.2 4.15692 0
3.6 4.15692 0
4 4.15692 0
4.4 4.15692 0
4.8 4.15692 0
5.2 4.15692 0
6.4 4.15692 0
6.8 4.15692 0
7.2 4.15692 0
7.6 4.15692 0
8 4.15692 0
1.8 4.50333 0
2.2 4.50333 0
2.6 4.50333 0
3 4.50333 0
3.4 4.50333 0
3.8 4.50333 0
6.6 4.50333 0
7 4.50333 0
7.4 4.50333 0
2.8 4.84974 0
3.2 4.84974 0
3.6 4.84974 0
4 4.84974 0
4.8 4.84974 0
5.2 4.84974 0
5.6 4.84974 0
6 4.84974 0
6.4 4.84974 0
6.8 4.84974 0
7.2 4.84974 0
3 5.19615 0
3.4 5.19615 0
3.8 5.19615 0
4.2 5.19615 0
4.6 5.19615 0
5 5.19615 0
5.4 5.19615 0
5.8 5.19615 0
6.2 5.19615 0
6.6 5.19615 0
7 5.19615 0
3.2 5.54256 0
3.6 5.54256 0
4 5.54256 0
4.4 5.54256 0
4.8 5.54256 0
5.2 5.54256 0
5.6 5.54256 0
6 5.54256 0
6.4 5.54256 0
3.4 5.88897 0
3.8 5.88897 0
4.2 5.88897 0
4.6 5.88897 0
4 0.46188 0.326599
4.4 0.46188 0.326599
4.8 0.46188 0.326599
5.2 0.46188 0.326599
2.6 0.80829 0.326599
3 0.80829 0.326599
3.8 0.80829 0.326599
4.2 0.80829 0.326599
4.6 0.80829 0.326599
5 0.80829 0.326599
5.4 0.80829 0.326599
5.8 0.80829 0.326599
6.2 0.80829 0.326599
6.6 0.80829 0.326599
7 0.80829 0.326599
2 1.1547 0.326599
2.4 1.1547 0.326599
2.8 1.1547 0.326599
3.2 1.1547 0.326599
3.6 1.1547 0.326599
4 1.1547 0.326599
6.4 1.1547 0.326599
6.8 1.1547 0.326599
7.2 1.1547 0.326599
7.6 1.1547 0.326599
1.8 1.50111 0.326599
2.2 1.50111 0.326599
3 1.50111 0.326599
3.4 1.50111 0.326599
7.4 1.50111 0.326599
7.8 1.50111 0.326599
2 1.84752 0.326599
7.6 1.84752 0.326599
8 1.84752 0.326599
8.4 1.84752 0.326599
8.8 1.84752 0.326599
1.8 2.19393 0.326599
2.2 2.19393 0.326599
2.6 2.19393 0.326599
7.8 2.19393 0.326599
8.2 2.19393 0.326599
8.6 2.19393 0.326599
9 2.19393 0.326599
2 2.54034 0.326599
2.4 2.54034 0.326599
2.8 2.54034 0.326599
8.8 2.54034 0.326599
9.2 2.54034 0.326599
1.8 2.88675 0.326599
2.2 2.88675 0.326599
2.6 2.88675 0.326599
8.6 2.88675 0.326599
9 2.88675 0.326599
9.4 2.88675 0.326599
1.6 3.23316 0.326599
2 3.23316 0.326599
8.8 3.23316 0.326599
9.2 3.23316 0.326599
1.4 3.57957 0.326599
1.8 3.57957 0.326599
8.6 3.57957 0.326599
9 3.57957 0.326599
9.4 3.57957 0.326599
1.6 3.92598 0.326599
2 3.92598 0.326599
5.2 3.92598 0.326599
5.6 3.92598 0.326599
6 3.92598 0.326599
8 3.92598 0.326599
8.4 3.92598 0.326599
8.8 3.92598 0.326599
9.2 3.92598 0.326599
1.8 4.27239 0.326599
2.2 4.27239 0.326599
2.6 4.27239 0.326599
3.8 4.27239 0.326599
4.2 4.27239 0.326599
4.6 4.27239 0.326599
5 4.27239 0.326599
5.4 4.27239 0.326599
5.8 4.27239 0.326599
6.2 4.27239 0.326599
6.6 4.27239 0.326599
7.4 4.27239 0.326599
7.8 4.27239 0.326599
8.2 4.27239 0.326599
8.6 4.27239 0.326599
2.4 4.6188 0.326599
2.8 4.6188 0.326599
3.2 4.6188 0.326599
3.6 4.6188 0.326599
4 4.6188 0.326599
4.4 4.6188 0.326599
4.8 4.6188 0.326599
5.2 4.6188 0.326599
5.6 4.6188 0.326599
6 4.6188 0.326599
6.4 4.6188 0.326599
7.2 4.6188 0.326599
7.6 4.6188 0.326599
3 4.96521 0.326599
3.4 4.96521 0.326599
3.8 4.96521 0.326599
4.2 4.96521 0.326599
4.6 4.96521 0.326599
5 4.96521 0.326599
5.4 4.96521 0.326599
5.8 4.96521 0.326599
6.2 4.96521 0.326599
7.4 4.96521 0.326599
3.2 5.31162 0.326599
6 5.31162 0.326599
6.4 5.31162 0.326599
6.8 5.31162 0.326599
7.2 5.31162 0.326599
3.4 5.65803 0.326599
3.8 5.65803 0.326599
4.2 5.65803 0.326599
4.6 5.65803 0.326599
5 5.65803 0.326599
5.4 5.65803 0.326599
5.8 5.65803 0.326599
6.2 5.65803 0.326599
6.6 5.65803 0.326599
7 5.65803 0.326599
4 6.00444 0.326599
5.4 0.34641 0.653197
5.8 0.34641 0.653197
6.2 0.34641 0.653197
6.6 0.34641 0.653197
4.4 0.69282 0.653197
4.8 0.69282 0.653197
5.2 0.69282 0.653197
5.6 0.69282 0.653197
6 0.69282 0.653197
6.4 0.69282 0.653197
6.8 0.69282 0.653197
7.2 0.69282 0.653197
2.6 1.03923 0.653197
3.8 1.03923 0.653197
4.2 1.03923 0.653197
4.6 1.03923 0.653197
7 1.03923 0.653197
7.4 1.03923 0.653197
2.4 1.38564 0.653197
2.8 1.38564 0.653197
3.2 1.38564 0.653197
3.6 1.38564 0.653197
4 1.38564 0.653197
4.4 1.38564 0.653197
7.6 1.38564 0.653197
8 1.38564 0.653197
2.2 1.73205 0.653197
2.6 1.73205 0.653197
3 1.73205 0.653197
8.2 1.73205 0.653197
8.6 1.73205 0.653197
9 1.73205 0.653197
2.4 2.07846 0.653197
2.8 2.07846 0.653197
8.4 2.07846 0.653197
8.8 2.07846 0.653197
9.2 2.07846 0.653197
9.6 2.07846 0.653197
2.6 2.42487 0.653197
9.4 2.42487 0.653197
2.8 2.77128 0.653197
9.6 2.77128 0.653197
2.2 3.11769 0.653197
2.6 3.11769 0.653197
9.4 3.11769 0.653197
2 3.4641 0.653197
2.4 3.4641 0.653197
9.2 3.4641 0.653197
9.6 3.4641 0.653197
1.8 3.81051 0.653197
2.2 3.81051 0.653197
2.6 3.81051 0.653197
9 3.81051 0.653197
9.4 3.81051 0.653197
2 4.15692 0.653197
2.4 4.15692 0.653197
2.8 4.15692 0.653197
8 4.15692 0.653197
8.4 4.15692 0.653197
8.8 4.15692 0.653197
9.2 4.15692 0.653197
2.6 4.50333 0.653197
3 4.50333 0.653197
3.4 4.50333 0.653197
3.8 4.50333 0.653197
7.8 4.50333 0.653197
8.2 4.50333 0.653197
3.2 4.84974 0.653197
3.6 4.84974 0.653197
4 4.84974 0.653197
7.6 4.84974 0.653197
8 4.84974 0.653197
3.4 5.19615 0.653197
3.8 5.19615 0.653197
4.2 5.19615 0.653197
7.4 5.19615 0.653197
7.8 5.19615 0.653197
3.6 5.54256 0.653197
4 5.54256 0.653197
4.4 5.54256 0.653197
4.8 5.54256 0.653197
5.2 5.54256 0.653197
5.6 5.54256 0.653197
6 5.54256 0.653197
6.4 5.54256 0.653197
6.8 5.54256 0.653197
7.2 5.54256 0.653197
4.2 5.88897 0.653197
4.6 5.88897 0.653197
5 5.88897 0.653197
5.4 5.88897 0.653197
5.8 5.88897 0.653197
6.2 5.88897 0.653197
5.8 0.11547 0.979796
6.2 0.11547 0.979796
4.8 0.46188 0.979796
5.2 0.46188 0.979796
5.6 0.46188 0.979796
6 0.46188 0.979796
6.4 0.46188 0.979796
6.8 0.46188 0.979796
4.6 0.80829 0.979796
5 0.80829 0.979796
7 0.80829 0.979796
7.4 0.80829 0.979796
7.8 0.80829 0.979796
3.2 1.1547 0.979796
3.6 1.1547 0.979796
4.4 1.1547 0.979796
4.8 1.1547 0.979796
7.6 1.1547 0.979796
8 1.1547 0.979796
3 1.50111 0.979796
3.4 1.50111 0.979796
3.8 1.50111 0.979796
4.2 1.50111 0.979796
7.8 1.50111 0.979796
8.2 1.50111 0.979796
8.6 1.50111 0.979796
2.8 1.84752 0.979796
8.4 1.84752 0.979796
8.8 1.84752 0.979796
9.2 1.84752 0.979796
2.6 2.19393 0.979796
9.4 2.19393 0.979796
2.4 2.54034 0.979796
2.8 2.54034 0.979796
9.6 2.54034 0.979796
2.2 2.88675 0.979796
2.6 2.88675 0.979796
3 2.88675 0.979796
2.4 3.23316 0.979796
2.8 3.23316 0.979796
9.6 3.23316 0.979796
2.2 3.57957 0.979796
2.6 3.57957 0.979796
2.4 3.92598 0.979796
9.2 3.92598 0.979796
9.6 3.92598 0.979796
2.6 4.27239 0.979796
3 4.27239 0.979796
8.2 4.27239 0.979796
8.6 4.27239 0.979796
9 4.27239 0.979796
9.4 4.27239 0.979796
2.8 4.6188 0.979796
3.2 4.6188 0.979796
3.6 4.6188 0.979796
4 4.6188 0.979796
8 4.6188 0.979796
8.4 4.6188 0.979796
4.2 4.96521 0.979796
7.8 4.96521 0.979796
8.2 4.96521 0.979796
4 5.31162 0.979796
4.4 5.31162 0.979796
7.2 5.31162 0.979796
7.6 5.31162 0.979796
4.2 5.65803 0.979796
4.6 5.65803 0.979796
5 5.65803 0.979796
5.8 5.65803 0.979796
6.2 5.65803 0.979796
6.6 5.65803 0.979796
7 5.65803 0.979796
7.4 5.65803 0.979796
4.8 6.00444 0.979796
5.2 6.00444 0.979796
5.6 6.00444 0.979796
6 6.00444 0.979796
6.4 6.00444 0.979796
5.6 0 1.30639
6 0 1.30639
6.4 0 1.30639
5 0.34641 1.30639
5.4 0.34641 1.30639
5.8 0.34641 1.30639
6.2 0.34641 1.30639
6.6 0.34641 1.30639
7 0.34641 1.30639
4.8 0.69282 1.30639
7.2 0.69282 1.30639
7.6 0.69282 1.30639
3.4 1.03923 1.30639
3.8 1.03923 1.30639
4.6 1.03923 1.30639
7.8 1.03923 1.30639
8.2 1.03923 1.30639
2.4 1.38564 1.30639
2.8 1.38564 1.30639
3.2 1.38564 1.30639
3.6 1.38564 1.30639
4 1.38564 1.30639
4.4 1.38564 1.30639
8 1.38564 1.30639
8.4 1.38564 1.30639
1.8 1.73205 1.30639
2.2 1.73205 1.30639
2.6 1.73205 1.30639
3 1.73205 1.30639
8.6 1.73205 1.30639
9 1.73205 1.30639
9.4 1.73205 1.30639
1.6 2.07846 1.30639
2 2.07846 1.30639
2.4 2.07846 1.30639
2.8 2.07846 1.30639
8.8 2.07846 1.30639
9.2 2.07846 1.30639
9.6 2.07846 1.30639
1.4 2.42487 1.30639
1.8 2.42487 1.30639
2.2 2.42487 1.30639
2.6 2.42487 1.30639
1.2 2.77128 1.30639
1.6 2.77128 1.30639
2 2.77128 1.30639
1.4 3.11769 1.30639
1.8 3.11769 1.30639
2.2 3.11769 1.30639
1.6 3.4641 1.30639
2 3.4641 1.30639
2.4 3.4641 1.30639
1.8 3.81051 1.30639
2.2 3.81051 1.30639
9 3.81051 1.30639
9.4 3.81051 1.30639
2 4.15692 1.30639
2.4 4.15692 1.30639
8.4 4.15692 1.30639
8.8 4.15692 1.30639
9.2 4.15692 1.30639
9.6 4.15692 1.30639
2.6 4.50333 1.30639
3 4.50333 1.30639
3.4 4.50333 1.30639
3.8 4.50333 1.30639
8.2 4.50333 1.30639
8.6 4.50333 1.30639
3.2 4.84974 1.30639
3.6 4.84974 1.30639
4 4.84974 1.30639
8 4.84974 1.30639
8.4 4.84974 1.30639
4.2 5.19615 1.30639
7.8 5.19615 1.30639
4.4 5.54256 1.30639
6.8 5.54256 1.30639
7.2 5.54256 1.30639
7.6 5.54256 1.30639
4.6 5.88897 1.30639
5 5.88897 1.30639
5.4 5.88897 1.30639
5.8 5.88897 1.30639
6.2 5.88897 1.30639
6.6 5.88897 1.30639
7 5.88897 1.30639
4.8 6.23538 1.30639
5.2 6.23538 1.30639
5.6 6.23538 1.30639
5 0.11547 1.63299
5.4 0.11547 1.63299
5.8 0.11547 1.63299
6.2 0.11547 1.63299
6.6 0.11547 1.63299
4.4 0.46188 1.63299
4.8 0.46188 1.63299
5.2 0.46188 1.63299
6.8 0.46188 1.63299
7.2 0.46188 1.63299
4.6 0.80829 1.63299
7.4 0.80829 1.63299
7.8 0.80829 1.63299
2 1.1547 1.63299
2.4 1.1547 1.63299
2.8 1.1547 1.63299
3.2 1.1547 1.63299
3.6 1.1547 1.63299
4 1.1547 1.63299
4.4 1.1547 1.63299
8 1.1547 1.63299
1.4 1.50111 1.63299
1.8 1.50111 1.63299
2.2 1.50111 1.63299
2.6 1.50111 1.63299
3 1.50111 1.63299
3.8 1.50111 1.63299
4.2 1.50111 1.63299
8.2 1.50111 1.63299
8.6 1.50111 1.63299
1.2 1.84752 1.63299
1.6 1.84752 1.63299
2 1.84752 1.63299
8.4 1.84752 1.63299
8.8 1.84752 1.63299
9.2 1.84752 1.63299
1 2.19393 1.63299
1.4 2.19393 1.63299
1.8 2.19393 1.63299
8.6 2.19393 1.63299
9 2.19393 1.63299
9.4 2.19393 1.63299
0.8 2.54034 1.63299
1.2 2.54034 1.63299
1.6 2.54034 1.63299
9.2 2.54034 1.63299
9.6 2.54034 1.63299
1 2.88675 1.63299
1.4 2.88675 1.63299
0.8 3.23316 1.63299
1.2 3.23316 1.63299
9.6 3.23316 1.63299
1 3.57957 1.63299
1.4 3.57957 1.63299
9 3.57957 1.63299
9.4 3.57957 1.63299
1.2 3.92598 1.63299
1.6 3.92598 1.63299
8.8 3.92598 1.63299
9.2 3.92598 1.63299
9.6 3.92598 1.63299
1.4 4.27239 1.63299
1.8 4.27239 1.63299
2.2 4.27239 1.63299
2.6 4.27239 1.63299
8.6 4.27239 1.63299
2 4.6188 1.63299
2.4 4.6188 1.63299
2.8 4.6188 1.63299
3.2 4.6188 1.63299
3.6 4.6188 1.63299
8.4 4.6188 1.63299
2.2 4.96521 1.63299
2.6 4.96521 1.63299
3 4.96521 1.63299
3.4 4.96521 1.63299
3.8 4.96521 1.63299
4.2 4.96521 1.63299
7.8 4.96521 1.63299
8.2 4.96521 1.63299
4 5.31162 1.63299
7.6 5.31162 1.63299
8 5.31162 1.63299
4.2 5.65803 1.63299
6.6 5.65803 1.63299
7 5.65803 1.63299
7.4 5.65803 1.63299
4.4 6.00444 1.63299
4.8 6.00444 1.63299
5.2 6.00444 1.63299
5.6 6.00444 1.63299
6 6.00444 1.63299
6.4 6.00444 1.63299
6.8 6.00444 1.63299
4.6 6.35085 1.63299
5 6.35085 1.63299
5.4 6.35085 1.63299
4.8 0 1.95959
5.2 0 1.95959
5.6 0 1.95959
6 0 1.95959
6.4 0 1.95959
4.6 0.34641 1.95959
5 0.34641 1.95959
5.4 0.34641 1.95959
6.6 0.34641 1.95959
7 0.34641 1.95959
7.4 0.34641 1.95959
4.4 0.69282 1.95959
7.6 0.69282 1.95959
1.8 1.03923 1.95959
2.2 1.03923 1.95959
2.6 1.03923 1.95959
3 1.03923 1.95959
3.4 1.03923 1.95959
3.8 1.03923 1.95959
4.2 1.03923 1.95959
7.8 1.03923 1.95959
8.2 1.03923 1.95959
1.2 1.38564 1.95959
1.6 1.38564 1.95959
2 1.38564 1.95959
2.4 1.38564 1.95959
4 1.38564 1.95959
8.4 1.38564 1.95959
1 1.73205 1.95959
1.4 1.73205 1.95959
8.6 1.73205 1.95959
0.8 2.07846 1.95959
1.2 2.07846 1.95959
8.8 2.07846 1.95959
0.6 2.42487 1.95959
1 2.42487 1.95959
9 2.42487 1.95959
9.4 2.42487 1.95959
0.8 2.77128 1.95959
9.2 2.77128 1.95959
9.6 2.77128 1.95959
0.6 3.11769 1.95959
1 3.11769 1.95959
9 3.11769 1.95959
9.4 3.11769 1.95959
0.8 3.4641 1.95959
1.2 3.4641 1.95959
9.2 3.4641 1.95959
9.6 3.4641 1.95959
1 3.81051 1.95959
1.4 3.81051 1.95959
9 3.81051 1.95959
0.8 4.15692 1.95959
1.2 4.15692 1.95959
1.6 4.15692 1.95959
8.8 4.15692 1.95959
1.4 4.50333 1.95959
1.8 4.50333 1.95959
2.2 4.50333 1.95959
8.6 4.50333 1.95959
1.6 4.84974 1.95959
2 4.84974 1.95959
2.4 4.84974 1.95959
2.8 4.84974 1.95959
3.2 4.84974 1.95959
3.6 4.84974 1.95959
4 4.84974 1.95959
8 4.84974 1.95959
8.4 4.84974 1.95959
3.8 5.19615 1.95959
4.2 5.19615 1.95959
7.8 5.19615 1.95959
8.2 5.19615 1.95959
4 5.54256 1.95959
7.2 5.54256 1.95959
7.6 5.54256 1.95959
4.2 5.88897 1.95959
5.8 5.88897 1.95959
6.2 5.88897 1.95959
6.6 5.88897 1.95959
7 5.88897 1.95959
4.4 6.23538 1.95959
4.8 6.23538 1.95959
5.2 6.23538 1.95959
5.6 6.23538 1.95959
6 6.23538 1.95959
4.6 0.11547 2.28619
5 0.11547 2.28619
5.4 0.11547 2.28619
5.8 0.11547 2.28619
6.2 0.11547 2.28619
6.6 0.11547 2.28619
7 0.11547 2.28619
4.4 0.46188 2.28619
6.8 0.46188 2.28619
7.2 0.46188 2.28619
7.6 0.46188 2.28619
1.8 0.80829 2.28619
2.2 0.80829 2.28619
2.6 0.80829 2.28619
3 0.80829 2.28619
3.4 0.80829 2.28619
3.8 0.80829 2.28619
4.2 0.80829 2.28619
7.4 0.80829 2.28619
7.8 0.80829 2.28619
1.2 1.1547 2.28619
1.6 1.1547 2.28619
2 1.1547 2.28619
2.4 1.1547 2.28619
3.2 1.1547 2.28619
3.6 1.1547 2.28619
4 1.1547 2.28619
8 1.1547 2.28619
8.4 1.1547 2.28619
1 1.50111 2.28619
1.4 1.50111 2.28619
8.2 1.50111 2.28619
8.6 1.50111 2.28619
0.4 1.84752 2.28619
0.8 1.84752 2.28619
8.4 1.84752 2.28619
8.8 1.84752 2.28619
0.6 2.19393 2.28619
9 2.19393 2.28619
0.4 2.54034 2.28619
0.8 2.54034 2.28619
8.8 2.54034 2.28619
9.2 2.54034 2.28619
0.6 2.88675 2.28619
9 2.88675 2.28619
0.4 3.23316 2.28619
0.8 3.23316 2.28619
8.8 3.23316 2.28619
9.2 3.23316 2.28619
0.6 3.57957 2.28619
9 3.57957 2.28619
0.4 3.92598 2.28619
0.8 3.92598 2.28619
8.8 3.92598 2.28619
0.6 4.27239 2.28619
1 4.27239 2.28619
1.4 4.27239 2.28619
8.6 4.27239 2.28619
9 4.27239 2.28619
1.2 4.6188 2.28619
1.6 4.6188 2.28619
8.4 4.6188 2.28619
8.8 4.6188 2.28619
1.4 4.96521 2.28619
1.8 4.96521 2.28619
2.2 4.96521 2.28619
2.6 4.96521 2.28619
3 4.96521 2.28619
3.4 4.96521 2.28619
3.8 4.96521 2.28619
7.8 4.96521 2.28619
8.2 4.96521 2.28619
2.4 5.31162 2.28619
2.8 5.31162 2.28619
3.6 5.31162 2.28619
4 5.31162 2.28619
7.6 5.31162 2.28619
8 5.31162 2.28619
3.8 5.65803 2.28619
4.2 5.65803 2.28619
7 5.65803 2.28619
7.4 5.65803 2.28619
4 6.00444 2.28619
4.4 6.00444 2.28619
5.6 6.00444 2.28619
6 6.00444 2.28619
6.4 6.00444 2.28619
6.8 6.00444 2.28619
4.2 6.35085 2.28619
4.6 6.35085 2.28619
5 6.35085 2.28619
5.4 6.35085 2.28619
5.8 6.35085 2.28619
4.8 0 2.61279
5.2 0 2.61279
5.6 0 2.61279
6 0 2.61279
6.4 0 2.61279
4.6 0.34641 2.61279
5 0.34641 2.61279
6.2 0.34641 2.61279
6.6 0.34641 2.61279
7 0.34641 2.61279
2 0.69282 2.61279
2.4 0.69282 2.61279
2.8 0.69282 2.61279
3.2 0.69282 2.61279
4 0.69282 2.61279
4.4 0.69282 2.61279
7.2 0.69282 2.61279
7.6 0.69282 2.61279
8 0.69282 2.61279
1.4 1.03923 2.61279
1.8 1.03923 2.61279
2.2 1.03923 2.61279
2.6 1.03923 2.61279
3 1.03923 2.61279
3.4 1.03923 2.61279
3.8 1.03923 2.61279
4.2 1.03923 2.61279
7.8 1.03923 2.61279
8.2 1.03923 2.61279
0.8 1.38564 2.61279
1.2 1.38564 2.61279
8.4 1.38564 2.61279
0.6 1.73205 2.61279
1 1.73205 2.61279
8.6 1.73205 2.61279
0.4 2.07846 2.61279
0.8 2.07846 2.61279
8.8 2.07846 2.61279
0.2 2.42487 2.61279
0.6 2.42487 2.61279
9 2.42487 2.61279
0.4 2.77128 2.61279
8.8 2.77128 2.61279
9.2 2.77128 2.61279
0.2 3.11769 2.61279
0.6 3.11769 2.61279
9 3.11769 2.61279
0.4 3.4641 2.61279
8.8 3.4641 2.61279
9.2 3.4641 2.61279
0.6 3.81051 2.61279
9 3.81051 2.61279
0.8 4.15692 2.61279
8.8 4.15692 2.61279
1 4.50333 2.61279
1.4 4.50333 2.61279
8.6 4.50333 2.61279
1.2 4.84974 2.61279
1.6 4.84974 2.61279
2 4.84974 2.61279
8 4.84974 2.61279
8.4 4.84974 2.61279
2.2 5.19615 2.61279
2.6 5.19615 2.61279
3 5.19615 2.61279
3.4 5.19615 2.61279
3.8 5.19615 2.61279
7.4 5.19615 2.61279
7.8 5.19615 2.61279
4 5.54256 2.61279
6.8 5.54256 2.61279
7.2 5.54256 2.61279
7.6 5.54256 2.61279
4.2 5.88897 2.61279
5.8 5.88897 2.61279
6.2 5.88897 2.61279
6.6 5.88897 2.61279
7 5.88897 2.61279
4.4 6.23538 2.61279
4.8 6.23538 2.61279
5.2 6.23538 2.61279
5.6 6.23538 2.61279
6 6.23538 2.61279
5 0.11547 2.93939
5.4 0.11547 2.93939
5.8 0.11547 2.93939
6.2 0.11547 2.93939
6.6 0.11547 2.93939
4.4 0.46188 2.93939
4.8 0.46188 2.93939
5.2 0.46188 2.93939
5.6 0.46188 2.93939
6 0.46188 2.93939
6.4 0.46188 2.93939
6.8 0.46188 2.93939
7.2 0.46188 2.93939
1.8 0.80829 2.93939
2.2 0.80829 2.93939
2.6 0.80829 2.93939
3 0.80829 2.93939
3.4 0.80829 2.93939
3.8 0.80829 2.93939
4.2 0.80829 2.93939
4.6 0.80829 2.93939
5 0.80829 2.93939
6.2 0.80829 2.93939
6.6 0.80829 2.93939
7 0.80829 2.93939
7.4 0.80829 2.93939
7.8 0.80829 2.93939
1.2 1.1547 2.93939
1.6 1.1547 2.93939
2 1.1547 2.93939
3.2 1.1547 2.93939
3.6 1.1547 2.93939
8 1.1547 2.93939
8.4 1.1547 2.93939
1 1.50111 2.93939
8.2 1.50111 2.93939
8.6 1.50111 2.93939
0.4 1.84752 2.93939
0.8 1.84752 2.93939
8.4 1.84752 2.93939
8.8 1.84752 2.93939
0.2 2.19393 2.93939
0.6 2.19393 2.93939
8.6 2.19393 2.93939
9 2.19393 2.93939
0.4 2.54034 2.93939
8.8 2.54034 2.93939
0.2 2.88675 2.93939
9 2.88675 2.93939
0.4 3.23316 2.93939
8.8 3.23316 2.93939
0.2 3.57957 2.93939
0.6 3.57957 2.93939
9 3.57957 2.93939
0.4 3.92598 2.93939
0.8 3.92598 2.93939
8.8 3.92598 2.93939
0.6 4.27239 2.93939
1 4.27239 2.93939
8.6 4.27239 2.93939
1.2 4.6188 2.93939
1.6 4.6188 2.93939
8 4.6188 2.93939
8.4 4.6188 2.93939
1.4 4.96521 2.93939
1.8 4.96521 2.93939
2.2 4.96521 2.93939
2.6 4.96521 2.93939
3 4.96521 2.93939
3.4 4.96521 2.93939
7.8 4.96521 2.93939
8.2 4.96521 2.93939
2.4 5.31162 2.93939
2.8 5.31162 2.93939
3.2 5.31162 2.93939
3.6 5.31162 2.93939
4 5.31162 2.93939
7.2 5.31162 2.93939
7.6 5.31162 2.93939
4.2 5.65803 2.93939
4.6 5.65803 2.93939
6.2 5.65803 2.93939
6.6 5.65803 2.93939
7 5.65803 2.93939
4.4 6.00444 2.93939
4.8 6.00444 2.93939
5.2 6.00444 2.93939
5.6 6.00444 2.93939
6 6.00444 2.93939
6.4 6.00444 2.93939
4.6 6.35085 2.93939
5 6.35085 2.93939
5.4 6.35085 2.93939
5.4 0.34641 3.26599
5.8 0.34641 3.26599
6.2 0.34641 3.26599
4.4 0.69282 3.26599
4.8 0.69282 3.26599
5.2 0.69282 3.26599
5.6 0.69282 3.26599
6 0.69282 3.26599
6.4 0.69282 3.26599
6.8 0.69282 3.26599
7.2 0.69282 3.26599
7.6 0.69282 3.26599
1.4 1.03923 3.26599
1.8 1.03923 3.26599
2.2 1.03923 3.26599
2.6 1.03923 3.26599
3 1.03923 3.26599
3.4 1.03923 3.26599
3.8 1.03923 3.26599
4.2 1.03923 3.26599
4.6 1.03923 3.26599
5 1.03923 3.26599
5.4 1.03923 3.26599
5.8 1.03923 3.26599
6.2 1.03923 3.26599
6.6 1.03923 3.26599
7.4 1.03923 3.26599
7.8 1.03923 3.26599
8.2 1.03923 3.26599
0.8 1.38564 3.26599
1.2 1.38564 3.26599
1.6 1.38564 3.26599
8 1.38564 3.26599
8.4 1.38564 3.26599
0.6 1.73205 3.26599
1 1.73205 3.26599
8.2 1.73205 3.26599
8.6 1.73205 3.26599
0.4 2.07846 3.26599
0.8 2.07846 3.26599
8.8 2.07846 3.26599
0.2 2.42487 3.26599
0.6 2.42487 3.26599
8.6 2.42487 3.26599
9 2.42487 3.26599
0.4 2.77128 3.26599
8.8 2.77128 3.26599
0.2 3.11769 3.26599
0.6 3.11769 3.26599
9 3.11769 3.26599
0.4 3.4641 3.26599
8.8 3.4641 3.26599
0.6 3.81051 3.26599
8.6 3.81051 3.26599
9 3.81051 3.26599
0.8 4.15692 3.26599
1.2 4.15692 3.26599
8.4 4.15692 3.26599
8.8 4.15692 3.26599
1 4.50333 3.26599
1.4 4.50333 3.26599
1.8 4.50333 3.26599
8.2 4.50333 3.26599
8.6 4.50333 3.26599
1.6 4.84974 3.26599
2 4.84974 3.26599
2.4 4.84974 3.26599
7.6 4.84974 3.26599
8 4.84974 3.26599
2.6 5.19615 3.26599
3 5.19615 3.26599
3.4 5.19615 3.26599
3.8 5.19615 3.26599
4.2 5.19615 3.26599
4.6 5.19615 3.26599
5 5.19615 3.26599
5.4 5.19615 3.26599
5.8 5.19615 3.26599
6.2 5.19615 3.26599
6.6 5.19615 3.26599
7 5.19615 3.26599
7.4 5.19615 3.26599
7.8 5.19615 3.26599
4.4 5.54256 3.26599
4.8 5.54256 3.26599
5.2 5.54256 3.26599
5.6 5.54256 3.26599
6 5.54256 3.26599
6.4 5.54256 3.26599
6.8 5.54256 3.26599
5 5.88897 3.26599
5.4 5.88897 3.26599
5.8 5.88897 3.26599
6.2 5.88897 3.26599
1 0.80829 3.59259
1.4 0.80829 3.59259
4.6 0.80829 3.59259
5 0.80829 3.59259
5.4 0.80829 3.59259
5.8 0.80829 3.59259
6.2 0.80829 3.59259
6.6 0.80829 3.59259
7 0.80829 3.59259
7.4 0.80829 3.59259
0.4 1.1547 3.59259
0.8 1.1547 3.59259
1.2 1.1547 3.59259
1.6 1.1547 3.59259
2 1.1547 3.59259
2.4 1.1547 3.59259
2.8 1.1547 3.59259
3.2 1.1547 3.59259
3.6 1.1547 3.59259
4 1.1547 3.59259
4.4 1.1547 3.59259
4.8 1.1547 3.59259
5.2 1.1547 3.59259
6.4 1.1547 3.59259
6.8 1.1547 3.59259
7.2 1.1547 3.59259
7.6 1.1547 3.59259
8 1.1547 3.59259
0.6 1.50111 3.59259
1 1.50111 3.59259
1.4 1.50111 3.59259
1.8 1.50111 3.59259
2.2 1.50111 3.59259
2.6 1.50111 3.59259
3 1.50111 3.59259
3.4 1.50111 3.59259
3.8 1.50111 3.59259
4.2 1.50111 3.59259
7.4 1.50111 3.59259
7.8 1.50111 3.59259
8.2 1.50111 3.59259
0.8 1.84752 3.59259
8 1.84752 3.59259
8.4 1.84752 3.59259
0.6 2.19393 3.59259
8.2 2.19393 3.59259
8.6 2.19393 3.59259
0.4 2.54034 3.59259
8.4 2.54034 3.59259
8.8 2.54034 3.59259
0.6 2.88675 3.59259
8.6 2.88675 3.59259
0.4 3.23316 3.59259
8.4 3.23316 3.59259
8.8 3.23316 3.59259
0.6 3.57957 3.59259
8.6 3.57957 3.59259
0.8 3.92598 3.59259
8.4 3.92598 3.59259
8.8 3.92598 3.59259
1 4.27239 3.59259
1.4 4.27239 3.59259
8.2 4.27239 3.59259
8.6 4.27239 3.59259
1.6 4.6188 3.59259
2 4.6188 3.59259
7.2 4.6188 3.59259
7.6 4.6188 3.59259
8 4.6188 3.59259
8.4 4.6188 3.59259
1.8 4.96521 3.59259
2.2 4.96521 3.59259
2.6 4.96521 3.59259
3 4.96521 3.59259
3.4 4.96521 3.59259
3.8 4.96521 3.59259
4.2 4.96521 3.59259
4.6 4.96521 3.59259
5 4.96521 3.59259
5.4 4.96521 3.59259
5.8 4.96521 3.59259
6.2 4.96521 3.59259
6.6 4.96521 3.59259
7 4.96521 3.59259
7.4 4.96521 3.59259
7.8 4.96521 3.59259
4 5.31162 3.59259
4.4 5.31162 3.59259
4.8 5.31162 3.59259
5.2 5.31162 3.59259
5.6 5.31162 3.59259
6 5.31162 3.59259
1 0.34641 3.91918
1.4 0.34641 3.91918
1.8 0.34641 3.91918
0.4 0.69282 3.91918
0.8 0.69282 3.91918
1.2 0.69282 3.91918
1.6 0.69282 3.91918
2 0.69282 3.91918
0.2 1.03923 3.91918
0.6 1.03923 3.91918
1.8 1.03923 3.91918
2.2 1.03923 3.91918
4.6 1.03923 3.91918
5 1.03923 3.91918
5.4 1.03923 3.91918
5.8 1.03923 3.91918
6.2 1.03923 3.91918
6.6 1.03923 3.91918
7 1.03923 3.91918
7.4 1.03923 3.91918
0 1.38564 3.91918
0.4 1.38564 3.91918
0.8 1.38564 3.91918
2 1.38564 3.91918
2.4 1.38564 3.91918
2.8 1.38564 3.91918
3.2 1.38564 3.91918
3.6 1.38564 3.91918
4 1.38564 3.91918
4.4 1.38564 3.91918
4.8 1.38564 3.91918
5.2 1.38564 3.91918
6.8 1.38564 3.91918
7.2 1.38564 3.91918
7.6 1.38564 3.91918
8 1.38564 3.91918
0.2 1.73205 3.91918
0.6 1.73205 3.91918
3.4 1.73205 3.91918
3.8 1.73205 3.91918
4.2 1.73205 3.91918
7.8 1.73205 3.91918
8.2 1.73205 3.91918
0 2.07846 3.91918
0.4 2.07846 3.91918
0.8 2.07846 3.91918
8 2.07846 3.91918
8.4 2.07846 3.91918
0.2 2.42487 3.91918
0.6 2.42487 3.91918
8.2 2.42487 3.91918
8.6 2.42487 3.91918
0 2.77128 3.91918
0.4 2.77128 3.91918
8.4 2.77128 3.91918
0.2 3.11769 3.91918
0.6 3.11769 3.91918
8.2 3.11769 3.91918
8.6 3.11769 3.91918
0.4 3.4641 3.91918
0.8 3.4641 3.91918
8.4 3.4641 3.91918
0.6 3.81051 3.91918
1 3.81051 3.91918
8.2 3.81051 3.91918
8.6 3.81051 3.91918
1.2 4.15692 3.91918
1.6 4.15692 3.91918
8 4.15692 3.91918
8.4 4.15692 3.91918
1.4 4.50333 3.91918
1.8 4.50333 3.91918
2.2 4.50333 3.91918
2.6 4.50333 3.91918
3 4.50333 3.91918
3.4 4.50333 3.91918
4.2 4.50333 3.91918
7.4 4.50333 3.91918
7.8 4.50333 3.91918
2 4.84974 3.91918
2.4 4.84974 3.91918
2.8 4.84974 3.91918
3.2 4.84974 3.91918
3.6 4.84974 3.91918
4 4.84974 3.91918
4.4 4.84974 3.91918
4.8 4.84974 3.91918
5.2 4.84974 3.91918
5.6 4.84974 3.91918
6 4.84974 3.91918
6.4 4.84974 3.91918
6.8 4.84974 3.91918
7.2 4.84974 3.91918
4.6 5.19615 3.91918
5 5.19615 3.91918
5.4 5.19615 3.91918
5.8 5.19615 3.91918
1 0.11547 4.24578
1.4 0.11547 4.24578
1.8 0.11547 4.24578
0.4 0.46188 4.24578
0.8 0.46188 4.24578
1.2 0.46188 4.24578
1.6 0.46188 4.24578
2 0.46188 4.24578
0.2 0.80829 4.24578
0.6 0.80829 4.24578
1.8 0.80829 4.24578
2.2 0.80829 4.24578
0 1.1547 4.24578
2.4 1.1547 4.24578
5.2 1.1547 4.24578
5.6 1.1547 4.24578
6 1.1547 4.24578
6.4 1.1547 4.24578
6.8 1.1547 4.24578
0.2 1.50111 4.24578
2.6 1.50111 4.24578
3 1.50111 4.24578
3.4 1.50111 4.24578
3.8 1.50111 4.24578
4.2 1.50111 4.24578
4.6 1.50111 4.24578
5 1.50111 4.24578
5.4 1.50111 4.24578
5.8 1.50111 4.24578
6.2 1.50111 4.24578
6.6 1.50111 4.24578
7 1.50111 4.24578
7.4 1.50111 4.24578
7.8 1.50111 4.24578
0 1.84752 4.24578
0.4 1.84752 4.24578
2.8 1.84752 4.24578
3.2 1.84752 4.24578
3.6 1.84752 4.24578
4 1.84752 4.24578
4.4 1.84752 4.24578
4.8 1.84752 4.24578
7.2 1.84752 4.24578
7.6 1.84752 4.24578
8 1.84752 4.24578
0.2 2.19393 4.24578
3 2.19393 4.24578
3.4 2.19393 4.24578
3.8 2.19393 4.24578
4.2 2.19393 4.24578
7.8 2.19393 4.24578
8.2 2.19393 4.24578
0 2.54034 4.24578
7.6 2.54034 4.24578
8 2.54034 4.24578
8.4 2.54034 4.24578
0.2 2.88675 4.24578
7.8 2.88675 4.24578
8.2 2.88675 4.24578
0 3.23316 4.24578
0.4 3.23316 4.24578
7.6 3.23316 4.24578
8 3.23316 4.24578
8.4 3.23316 4.24578
0.2 3.57957 4.24578
0.6 3.57957 4.24578
7.8 3.57957 4.24578
8.2 3.57957 4.24578
0.8 3.92598 4.24578
1.2 3.92598 4.24578
7.2 3.92598 4.24578
7.6 3.92598 4.24578
8 3.92598 4.24578
1 4.27239 4.24578
1.4 4.27239 4.24578
1.8 4.27239 4.24578
2.2 4.27239 4.24578
2.6 4.27239 4.24578
3 4.27239 4.24578
3.4 4.27239 4.24578
3.8 4.27239 4.24578
4.2 4.27239 4.24578
4.6 4.27239 4.24578
5 4.27239 4.24578
5.4 4.27239 4.24578
5.8 4.27239 4.24578
6.2 4.27239 4.24578
7 4.27239 4.24578
7.4 4.27239 4.24578
7.8 4.27239 4.24578
2 4.6188 4.24578
2.4 4.6188 4.24578
2.8 4.6188 4.24578
3.2 4.6188 4.24578
3.6 4.6188 4.24578
4 4.6188 4.24578
4.4 4.6188 4.24578
4.8 4.6188 4.24578
5.2 4.6188 4.24578
5.6 4.6188 4.24578
6 4.6188 4.24578
6.4 4.6188 4.24578
6.8 4.6188 4.24578
7.2 4.6188 4.24578
7.6 4.6188 4.24578
2.6 4.96521 4.24578
3 4.96521 4.24578
4.2 4.96521 4.24578
4.6 4.96521 4.24578
5 4.96521 4.24578
5.4 4.96521 4.24578
5.8 4.96521 4.24578
6.2 4.96521 4.24578
6.6 4.96521 4.24578
1.2 0 4.57238
0.6 0.34641 4.57238
1 0.34641 4.57238
1.4 0.34641 4.57238
1.8 0.34641 4.57238
0.4 0.69282 4.57238
2 0.69282 4.57238
0.2 1.03923 4.57238
2.2 1.03923 4.57238
2.6 1.03923 4.57238
0 1.38564 4.57238
0.4 1.38564 4.57238
2.4 1.38564 4.57238
2.8 1.38564 4.57238
5.2 1.38564 4.57238
5.6 1.38564 4.57238
6 1.38564 4.57238
6.4 1.38564 4.57238
6.8 1.38564 4.57238
0.2 1.73205 4.57238
3 1.73205 4.57238
3.8 1.73205 4.57238
5 1.73205 4.57238
5.4 1.73205 4.57238
5.8 1.73205 4.57238
6.2 1.73205 4.57238
6.6 1.73205 4.57238
7 1.73205 4.57238
7.4 1.73205 4.57238
0 2.07846 4.57238
3.2 2.07846 4.57238
3.6 2.07846 4.57238
4 2.07846 4.57238
4.4 2.07846 4.57238
4.8 2.07846 4.57238
5.2 2.07846 4.57238
5.6 2.07846 4.57238
6 2.07846 4.57238
6.4 2.07846 4.57238
6.8 2.07846 4.57238
7.2 2.07846 4.57238
7.6 2.07846 4.57238
0.2 2.42487 4.57238
3.4 2.42487 4.57238
3.8 2.42487 4.57238
4.2 2.42487 4.57238
4.6 2.42487 4.57238
5 2.42487 4.57238
7 2.42487 4.57238
7.4 2.42487 4.57238
7.8 2.42487 4.57238
0 2.77128 4.57238
3.6 2.77128 4.57238
4 2.77128 4.57238
4.4 2.77128 4.57238
4.8 2.77128 4.57238
7.2 2.77128 4.57238
7.6 2.77128 4.57238
8 2.77128 4.57238
0.2 3.11769 4.57238
3.8 3.11769 4.57238
4.2 3.11769 4.57238
4.6 3.11769 4.57238
5 3.11769 4.57238
7.4 3.11769 4.57238
7.8 3.11769 4.57238
0.4 3.4641 4.57238
3.6 3.4641 4.57238
4 3.4641 4.57238
4.4 3.4641 4.57238
4.8 3.4641 4.57238
5.2 3.4641 4.57238
7.2 3.4641 4.57238
7.6 3.4641 4.57238
0.6 3.81051 4.57238
1 3.81051 4.57238
2.6 3.81051 4.57238
3 3.81051 4.57238
3.4 3.81051 4.57238
3.8 3.81051 4.57238
4.2 3.81051 4.57238
4.6 3.81051 4.57238
5 3.81051 4.57238
5.4 3.81051 4.57238
5.8 3.81051 4.57238
6.2 3.81051 4.57238
6.6 3.81051 4.57238
7 3.81051 4.57238
7.4 3.81051 4.57238
1.2 4.15692 4.57238
1.6 4.15692 4.57238
2 4.15692 4.57238
2.4 4.15692 4.57238
2.8 4.15692 4.57238
3.2 4.15692 4.57238
3.6 4.15692 4.57238
4 4.15692 4.57238
4.4 4.15692 4.57238
4.8 4.15692 4.57238
5.2 4.15692 4.57238
5.6 4.15692 4.57238
6 4.15692 4.57238
6.4 4.15692 4.57238
6.8 4.15692 4.57238
7.2 4.15692 4.57238
2.6 4.50333 4.57238
3 4.50333 4.57238
3.4 4.50333 4.57238
5.4 4.50333 4.57238
5.8 4.50333 4.57238
6.2 4.50333 4.57238
6.6 4.50333 4.57238
7 4.50333 4.57238
1 0.11547 4.89898
1.4 0.11547 4.89898
0.4 0.46188 4.89898
0.8 0.46188 4.89898
1.2 0.46188 4.89898
1.6 0.46188 4.89898
0.2 0.80829 4.89898
0.6 0.80829 4.89898
1.4 0.80829 4.89898
1.8 0.80829 4.89898
0 1.1547 4.89898
0.4 1.1547 4.89898
2 1.1547 4.89898
2.4 1.1547 4.89898
0.2 1.50111 4.89898
2.2 1.50111 4.89898
2.6 1.50111 4.89898
3 1.50111 4.89898
0 1.84752 4.89898
0.4 1.84752 4.89898
2.8 1.84752 4.89898
5.6 1.84752 4.89898
6 1.84752 4.89898
6.4 1.84752 4.89898
0.2 2.19393 4.89898
3 2.19393 4.89898
5.4 2.19393 4.89898
5.8 2.19393 4.89898
6.2 2.19393 4.89898
6.6 2.19393 4.89898
7 2.19393 4.89898
0 2.54034 4.89898
0.4 2.54034 4.89898
3.2 2.54034 4.89898
5.2 2.54034 4.89898
5.6 2.54034 4.89898
6 2.54034 4.89898
6.4 2.54034 4.89898
6.8 2.54034 4.89898
7.2 2.54034 4.89898
0.2 2.88675 4.89898
3 2.88675 4.89898
3.4 2.88675 4.89898
5 2.88675 4.89898
5.4 2.88675 4.89898
5.8 2.88675 4.89898
6.2 2.88675 4.89898
6.6 2.88675 4.89898
7 2.88675 4.89898
0 3.23316 4.89898
0.4 3.23316 4.89898
2.8 3.23316 4.89898
3.2 3.23316 4.89898
3.6 3.23316 4.89898
5.2 3.23316 4.89898
5.6 3.23316 4.89898
6 3.23316 4.89898
6.4 3.23316 4.89898
6.8 3.23316 4.89898
7.2 3.23316 4.89898
0.2 3.57957 4.89898
0.6 3.57957 4.89898
3 3.57957 4.89898
3.4 3.57957 4.89898
5 3.57957 4.89898
5.4 3.57957 4.89898
5.8 3.57957 4.89898
6.2 3.57957 4.89898
6.6 3.57957 4.89898
7 3.57957 4.89898
0.8 3.92598 4.89898
1.2 3.92598 4.89898
1.6 3.92598 4.89898
2 3.92598 4.89898
2.4 3.92598 4.89898
2.8 3.92598 4.89898
3.2 3.92598 4.89898
5.6 3.92598 4.89898
6 3.92598 4.89898
6.4 3.92598 4.89898
6.8 3.92598 4.89898
1 4.27239 4.89898
1.4 4.27239 4.89898
1.8 4.27239 4.89898
2.2 4.27239 4.89898
1 0.34641 5.22558
1.4 0.34641 5.22558
0.4 0.69282 5.22558
0.8 0.69282 5.22558
1.2 0.69282 5.22558
1.6 0.69282 5.22558
2 0.69282 5.22558
0.2 1.03923 5.22558
0.6 1.03923 5.22558
1.8 1.03923 5.22558
2.2 1.03923 5.22558
0.4 1.38564 5.22558
2 1.38564 5.22558
2.4 1.38564 5.22558
0.2 1.73205 5.22558
2.6 1.73205 5.22558
0.4 2.07846 5.22558
2.8 2.07846 5.22558
0.2 2.42487 5.22558
3 2.42487 5.22558
0.4 2.77128 5.22558
2.8 2.77128 5.22558
3.2 2.77128 5.22558
0.2 3.11769 5.22558
0.6 3.11769 5.22558
3 3.11769 5.22558
0.4 3.4641 5.22558
0.8 3.4641 5.22558
2.8 3.4641 5.22558
0.6 3.81051 5.22558
1 3.81051 5.22558
1.4 3.81051 5.22558
2.2 3.81051 5.22558
2.6 3.81051 5.22558
1.2 4.15692 5.22558
1.6 4.15692 5.22558
2 4.15692 5.22558
2.4 4.15692 5.22558
1.2 0.46188 5.55218
0.6 0.80829 5.55218
1 0.80829 5.55218
1.4 0.80829 5.55218
1.8 0.80829 5.55218
0.4 1.1547 5.55218
0.8 1.1547 5.55218
1.2 1.1547 5.55218
2 1.1547 5.55218
0.2 1.50111 5.55218
0.6 1.50111 5.55218
2.2 1.50111 5.55218
2.6 1.50111 5.55218
0 1.84752 5.55218
0.4 1.84752 5.55218
2.4 1.84752 5.55218
2.8 1.84752 5.55218
0.2 2.19393 5.55218
2.6 2.19393 5.55218
0 2.54034 5.55218
0.4 2.54034 5.55218
2.8 2.54034 5.55218
0.2 2.88675 5.55218
0.6 2.88675 5.55218
2.6 2.88675 5.55218
3 2.88675 5.55218
0.4 3.23316 5.55218
0.8 3.23316 5.55218
2.8 3.23316 5.55218
3.2 3.23316 5.55218
0.6 3.57957 5.55218
1 3.57957 5.55218
2.2 3.57957 5.55218
2.6 3.57957 5.55218
3 3.57957 5.55218
3.4 3.57957 5.55218
0.8 3.92598 5.55218
1.2 3.92598 5.55218
1.6 3.92598 5.55218
2 3.92598 5.55218
2.4 3.92598 5.55218
1.4 4.27239 5.55218
1.8 4.27239 5.55218
2.2 4.27239 5.55218
1.2 4.6188 5.55218
1.6 4.6188 5.55218
2 4.6188 5.55218
1.4 4.96521 5.55218
1.8 4.96521 5.55218
1 1.03923 5.87878
1.4 1.03923 5.87878
1.8 1.03923 5.87878
2.2 1.03923 5.87878
0.8 1.38564 5.87878
1.2 1.38564 5.87878
1.6 1.38564 5.87878
2 1.38564 5.87878
2.4 1.38564 5.87878
0.2 1.73205 5.87878
0.6 1.73205 5.87878
1 1.73205 5.87878
1.4 1.73205 5.87878
1.8 1.73205 5.87878
2.2 1.73205 5.87878
2.6 1.73205 5.87878
0.4 2.07846 5.87878
0.8 2.07846 5.87878
2.4 2.07846 5.87878
2.8 2.07846 5.87878
0.2 2.42487 5.87878
0.6 2.42487 5.87878
2.6 2.42487 5.87878
0.4 2.77128 5.87878
0.8 2.77128 5.87878
2.8 2.77128 5.87878
3.2 2.77128 5.87878
0.6 3.11769 5.87878
1 3.11769 5.87878
3 3.11769 5.87878
3.4 3.11769 5.87878
0.8 3.4641 5.87878
1.2 3.4641 5.87878
2 3.4641 5.87878
2.4 3.4641 5.87878
3.2 3.4641 5.87878
3.6 3.4641 5.87878
4 3.4641 5.87878
1 3.81051 5.87878
1.8 3.81051 5.87878
2.2 3.81051 5.87878
2.6 3.81051 5.87878
3 3.81051 5.87878
3.4 3.81051 5.87878
3.8 3.81051 5.87878
1.2 4.15692 5.87878
2 4.15692 5.87878
3.6 4.15692 5.87878
1 4.50333 5.87878
1.4 4.50333 5.87878
2.2 4.50333 5.87878
1.2 4.84974 5.87878
1.6 4.84974 5.87878
2 4.84974 5.87878
1.4 5.19615 5.87878
1.8 5.19615 5.87878
2.2 5.19615 5.87878
1.2 5.54256 5.87878
1.6 5.54256 5.87878
2 5.54256 5.87878
1.4 5.88897 5.87878
1.8 5.88897 5.87878
1.6 6.23538 5.87878
1.4 1.50111 6.20537
1.8 1.50111 6.20537
0.8 1.84752 6.20537
1.2 1.84752 6.20537
1.6 1.84752 6.20537
2 1.84752 6.20537
2.4 1.84752 6.20537
0.6 2.19393 6.20537
1 2.19393 6.20537
1.4 2.19393 6.20537
1.8 2.19393 6.20537
2.2 2.19393 6.20537
2.6 2.19393 6.20537
0.4 2.54034 6.20537
0.8 2.54034 6.20537
1.2 2.54034 6.20537
1.6 2.54034 6.20537
2 2.54034 6.20537
2.4 2.54034 6.20537
0.6 2.88675 6.20537
1 2.88675 6.20537
1.4 2.88675 6.20537
1.8 2.88675 6.20537
2.2 2.88675 6.20537
2.6 2.88675 6.20537
3 2.88675 6.20537
3.4 2.88675 6.20537
0.8 3.23316 6.20537
1.2 3.23316 6.20537
1.6 3.23316 6.20537
2 3.23316 6.20537
2.4 3.23316 6.20537
3.2 3.23316 6.20537
3.6 3.23316 6.20537
4 3.23316 6.20537
1 3.57957 6.20537
1.4 3.57957 6.20537
1.8 3.57957 6.20537
2.2 3.57957 6.20537
2.6 3.57957 6.20537
3.4 3.57957 6.20537
4.2 3.57957 6.20537
4.6 3.57957 6.20537
1.2 3.92598 6.20537
1.6 3.92598 6.20537
2 3.92598 6.20537
2.8 3.92598 6.20537
3.2 3.92598 6.20537
3.6 3.92598 6.20537
4 3.92598 6.20537
4.4 3.92598 6.20537
4.8 3.92598 6.20537
1 4.27239 6.20537
1.8 4.27239 6.20537
2.2 4.27239 6.20537
3 4.27239 6.20537
3.4 4.27239 6.20537
3.8 4.27239 6.20537
4.2 4.27239 6.20537
4.6 4.27239 6.20537
5 4.27239 6.20537
0.8 4.6188 6.20537
1.2 4.6188 6.20537
2 4.6188 6.20537
1 4.96521 6.20537
1.4 4.96521 6.20537
2.2 4.96521 6.20537
1.2 5.31162 6.20537
2 5.31162 6.20537
1.4 5.65803 6.20537
1.8 5.65803 6.20537
2.2 5.65803 6.20537
1.2 6.00444 6.20537
1.6 6.00444 6.20537
2 6.00444 6.20537
1.4 6.35085 6.20537
1.8 6.35085 6.20537
1.6 6.69726 6.20537
2 6.69726 6.20537
1.4 7.04367 6.20537
1.8 7.04367 6.20537
2.6 3.11769 6.53197
3 3.11769 6.53197
3.4 3.11769 6.53197
2.4 3.4641 6.53197
2.8 3.4641 6.53197
3.6 3.4641 6.53197
4 3.4641 6.53197
4.4 3.4641 6.53197
1.4 3.81051 6.53197
2.6 3.81051 6.53197
3 3.81051 6.53197
3.8 3.81051 6.53197
4.2 3.81051 6.53197
4.6 3.81051 6.53197
5 3.81051 6.53197
1.2 4.15692 6.53197
1.6 4.15692 6.53197
2 4.15692 6.53197
3.2 4.15692 6.53197
3.6 4.15692 6.53197
4.8 4.15692 6.53197
5.2 4.15692 6.53197
1 4.50333 6.53197
1.4 4.50333 6.53197
1.8 4.50333 6.53197
3.8 4.50333 6.53197
4.2 4.50333 6.53197
4.6 4.50333 6.53197
5 4.50333 6.53197
5.4 4.50333 6.53197
1.2 4.84974 6.53197
2 4.84974 6.53197
1 5.19615 6.53197
1.4 5.19615 6.53197
1.8 5.19615 6.53197
2.2 5.19615 6.53197
1.2 5.54256 6.53197
2 5.54256 6.53197
1.4 5.88897 6.53197
2.2 5.88897 6.53197
1.6 6.23538 6.53197
2 6.23538 6.53197
1.4 6.58179 6.53197
2.2 6.58179 6.53197
1.6 6.9282 6.53197
2 6.9282 6.53197
1.8 7.27461 6.53197
2.2 7.27461 6.53197
2.8 3.23316 6.85857
3.2 3.23316 6.85857
3.6 3.23316 6.85857
3 3.57957 6.85857
3.4 3.57957 6.85857
3.8 3.57957 6.85857
3.2 3.92598 6.85857
4 3.92598 6.85857
4.4 3.92598 6.85857
3 4.27239 6.85857
3.4 4.27239 6.85857
3.8 4.27239 6.85857
4.6 4.27239 6.85857
5 4.27239 6.85857
5.4 4.27239 6.85857
1.2 4.6188 6.85857
1.6 4.6188 6.85857
4 4.6188 6.85857
4.4 4.6188 6.85857
4.8 4.6188 6.85857
5.2 4.6188 6.85857
1 4.96521 6.85857
1.4 4.96521 6.85857
1.8 4.96521 6.85857
4.2 4.96521 6.85857
4.6 4.96521 6.85857
5 4.96521 6.85857
5.4 4.96521 6.85857
0.8 5.31162 6.85857
1.2 5.31162 6.85857
1.6 5.31162 6.85857
2 5.31162 6.85857
1 5.65803 6.85857
1.8 5.65803 6.85857
2.2 5.65803 6.85857
0.8 6.00444 6.85857
1.2 6.00444 6.85857
2 6.00444 6.85857
1 6.35085 6.85857
1.4 6.35085 6.85857
1.8 6.35085 6.85857
2.2 6.35085 6.85857
1.6 6.69726 6.85857
2 6.69726 6.85857
1.4 7.04367 6.85857
1.8 7.04367 6.85857
2.2 7.04367 6.85857
2 0 7.18517
3.6 3.4641 7.18517
4 3.4641 7.18517
3.4 3.81051 7.18517
3.8 3.81051 7.18517
4.2 3.81051 7.18517
3.6 4.15692 7.18517
4 4.15692 7.18517
4.4 4.15692 7.18517
3.8 4.50333 7.18517
4.2 4.50333 7.18517
4.6 4.50333 7.18517
5 4.50333 7.18517
4.4 4.84974 7.18517
4.8 4.84974 7.18517
5.2 4.84974 7.18517
5.6 4.84974 7.18517
5 5.19615 7.18517
5.4 5.19615 7.18517
1.2 5.54256 7.18517
1.6 5.54256 7.18517
1 5.88897 7.18517
1.4 5.88897 7.18517
1.8 5.88897 7.18517
1.2 6.23538 7.18517
1.6 6.23538 7.18517
2 6.23538 7.18517
1 6.58179 7.18517
1.4 6.58179 7.18517
1.8 6.58179 7.18517
2.2 6.58179 7.18517
1.2 6.9282 7.18517
1.6 6.9282 7.18517
2 6.9282 7.18517
1.8 7.27461 7.18517
2.2 7.27461 7.18517
4 3.92598 7.51177
4.4 3.92598 7.51177
4.2 4.27239 7.51177
4.6 4.27239 7.51177
4.4 4.6188 7.51177
4.8 4.6188 7.51177
5.2 4.6188 7.51177
4.6 4.96521 7.51177
5 4.96521 7.51177
5.4 4.96521 7.51177
5.2 5.31162 7.51177
5.6 5.31162 7.51177
1 6.35085 7.51177
1.4 6.35085 7.51177
1.8 6.35085 7.51177
0.8 6.69726 7.51177
1.2 6.69726 7.51177
1.6 6.69726 7.51177
1.4 7.04367 7.51177
1.8 7.04367 7.51177
1.6 0 7.83837
2 0 7.83837
4.4 4.15692 7.83837
4.8 4.15692 7.83837
4.6 4.50333 7.83837
5 4.50333 7.83837
4.8 4.84974 7.83837
5.2 4.84974 7.83837
5 5.19615 7.83837
5.4 5.19615 7.83837
