ply
format ascii 1.0
comment exported from virtual worlds 
comment Voxel surface data
element vertex 196
property float x
property float y
property float z
end_header
3.5 6.06218 9.79796
4.5 6.06218 9.79796
5.5 6.06218 9.79796
14.5 6.06218 9.79796
15.5 6.06218 9.79796
16.5 6.06218 9.79796
2 6.9282 9.79796
3 6.9282 9.79796
4 6.9282 9.79796
5 6.9282 9.79796
6 6.9282 9.79796
7 6.9282 9.79796
8 6.9282 9.79796
9 6.9282 9.79796
11 6.9282 9.79796
12 6.9282 9.79796
13 6.9282 9.79796
14 6.9282 9.79796
15 6.9282 9.79796
16 6.9282 9.79796
17 6.9282 9.79796
18 6.9282 9.79796
0.5 7.79423 9.79796
1.5 7.79423 9.79796
5.5 7.79423 9.79796
6.5 7.79423 9.79796
7.5 7.79423 9.79796
8.5 7.79423 9.79796
9.5 7.79423 9.79796
10.5 7.79423 9.79796
11.5 7.79423 9.79796
12.5 7.79423 9.79796
13.5 7.79423 9.79796
14.5 7.79423 9.79796
18.5 7.79423 9.79796
19.5 7.79423 9.79796
0 8.66025 9.79796
7 8.66025 9.79796
8 8.66025 9.79796
9 8.66025 9.79796
10 8.66025 9.79796
11 8.66025 9.79796
12 8.66025 9.79796
13 8.66025 9.79796
20 8.66025 9.79796
0.5 9.52628 9.79796
7.5 9.52628 9.79796
8.5 9.52628 9.79796
9.5 9.52628 9.79796
10.5 9.52628 9.79796
11.5 9.52628 9.79796
12.5 9.52628 9.79796
19.5 9.52628 9.79796
0 10.3923 9.79796
7 10.3923 9.79796
8 10.3923 9.79796
9 10.3923 9.79796
10 10.3923 9.79796
11 10.3923 9.79796
12 10.3923 9.79796
13 10.3923 9.79796
20 10.3923 9.79796
0.5 11.2583 9.79796
6.5 11.2583 9.79796
7.5 11.2583 9.79796
8.5 11.2583 9.79796
9.5 11.2583 9.79796
10.5 11.2583 9.79796
11.5 11.2583 9.79796
12.5 11.2583 9.79796
13.5 11.2583 9.79796
19.5 11.2583 9.79796
1 12.1244 9.79796
6 12.1244 9.79796
7 12.1244 9.79796
8 12.1244 9.79796
9 12.1244 9.79796
10 12.1244 9.79796
11 12.1244 9.79796
12 12.1244 9.79796
13 12.1244 9.79796
14 12.1244 9.79796
19 12.1244 9.79796
1.5 12.9904 9.79796
2.5 12.9904 9.79796
3.5 12.9904 9.79796
4.5 12.9904 9.79796
5.5 12.9904 9.79796
6.5 12.9904 9.79796
7.5 12.9904 9.79796
8.5 12.9904 9.79796
9.5 12.9904 9.79796
10.5 12.9904 9.79796
11.5 12.9904 9.79796
12.5 12.9904 9.79796
13.5 12.9904 9.79796
14.5 12.9904 9.79796
15.5 12.9904 9.79796
16.5 12.9904 9.79796
17.5 12.9904 9.79796
18.5 12.9904 9.79796
3 13.8564 9.79796
4 13.8564 9.79796
5 13.8564 9.79796
6 13.8564 9.79796
14 13.8564 9.79796
15 13.8564 9.79796
16 13.8564 9.79796
17 13.8564 9.79796
3 6.35085 10.6145
4 6.35085 10.6145
5 6.35085 10.6145
6 6.35085 10.6145
14 6.35085 10.6145
15 6.35085 10.6145
16 6.35085 10.6145
17 6.35085 10.6145
1.5 7.21688 10.6145
2.5 7.21688 10.6145
5.5 7.21688 10.6145
6.5 7.21688 10.6145
7.5 7.21688 10.6145
8.5 7.21688 10.6145
11.5 7.21688 10.6145
12.5 7.21688 10.6145
13.5 7.21688 10.6145
14.5 7.21688 10.6145
17.5 7.21688 10.6145
18.5 7.21688 10.6145
1 8.0829 10.6145
7 8.0829 10.6145
8 8.0829 10.6145
9 8.0829 10.6145
10 8.0829 10.6145
11 8.0829 10.6145
12 8.0829 10.6145
13 8.0829 10.6145
19 8.0829 10.6145
0.5 8.94893 10.6145
7.5 8.94893 10.6145
8.5 8.94893 10.6145
9.5 8.94893 10.6145
10.5 8.94893 10.6145
11.5 8.94893 10.6145
12.5 8.94893 10.6145
19.5 8.94893 10.6145
0 9.81495 10.6145
8 9.81495 10.6145
9 9.81495 10.6145
10 9.81495 10.6145
11 9.81495 10.6145
12 9.81495 10.6145
20 9.81495 10.6145
0.5 10.681 10.6145
7.5 10.681 10.6145
8.5 10.681 10.6145
9.5 10.681 10.6145
10.5 10.681 10.6145
11.5 10.681 10.6145
12.5 10.681 10.6145
19.5 10.681 10.6145
0 11.547 10.6145
7 11.547 10.6145
8 11.547 10.6145
9 11.547 10.6145
10 11.547 10.6145
11 11.547 10.6145
12 11.547 10.6145
13 11.547 10.6145
20 11.547 10.6145
0.5 12.413 10.6145
1.5 12.413 10.6145
5.5 12.413 10.6145
6.5 12.413 10.6145
7.5 12.413 10.6145
8.5 12.413 10.6145
9.5 12.413 10.6145
10.5 12.413 10.6145
11.5 12.413 10.6145
12.5 12.413 10.6145
13.5 12.413 10.6145
14.5 12.413 10.6145
18.5 12.413 10.6145
19.5 12.413 10.6145
2 13.2791 10.6145
3 13.2791 10.6145
4 13.2791 10.6145
5 13.2791 10.6145
6 13.2791 10.6145
7 13.2791 10.6145
13 13.2791 10.6145
14 13.2791 10.6145
15 13.2791 10.6145
16 13.2791 10.6145
17 13.2791 10.6145
18 13.2791 10.6145
